Perun-Bold.ufo
<glyph name="ampersand" format="2">
  <advance width="747"/>
  <unicode hex="0026"/>
  <outline>
    <contour>
      <point x="576.519" y="0" type="line"/>
      <point x="745" y="0" type="line"/>
      <point x="349" y="409.565" type="line" smooth="yes"/>
      <point x="283" y="477.826"/>
      <point x="239" y="538.065"/>
      <point x="239" y="560.162" type="curve" smooth="yes"/>
      <point x="239" y="605.065"/>
      <point x="271.79" y="635"/>
      <point x="320.975" y="635" type="curve" smooth="yes"/>
      <point x="365.39" y="635"/>
      <point x="395" y="609.679"/>
      <point x="395" y="571.698" type="curve" smooth="yes"/>
      <point x="395" y="548.428"/>
      <point x="377.133" y="521.891"/>
      <point x="350.333" y="505.354" type="curve" smooth="yes"/>
      <point x="270.274" y="455.956" type="line"/>
      <point x="348" y="374.802" type="line"/>
      <point x="384.78" y="398.45" type="line" smooth="yes"/>
      <point x="469.419" y="452.871"/>
      <point x="519" y="500"/>
      <point x="519" y="573.658" type="curve" smooth="yes"/>
      <point x="519" y="670.463"/>
      <point x="440.2" y="735"/>
      <point x="322" y="735" type="curve" smooth="yes"/>
      <point x="192.4" y="735"/>
      <point x="106" y="664.377"/>
      <point x="106" y="558.442" type="curve" smooth="yes"/>
      <point x="106" y="516.538"/>
      <point x="132.004" y="461.599"/>
      <point x="171.009" y="421.095" type="curve" smooth="yes"/>
    </contour>
    <contour>
      <point x="51" y="203.615" type="curve" smooth="yes"/>
      <point x="51" y="72.446"/>
      <point x="162.73" y="-15"/>
      <point x="330.324" y="-15" type="curve" smooth="yes"/>
      <point x="425.795" y="-15"/>
      <point x="499.807" y="9.99643"/>
      <point x="558.066" y="61.9166" type="curve"/>
      <point x="481.163" y="144.267" type="line"/>
      <point x="448.066" y="108.782"/>
      <point x="386.507" y="85"/>
      <point x="327.754" y="85" type="curve" smooth="yes"/>
      <point x="245.701" y="85"/>
      <point x="191" y="130.673"/>
      <point x="191" y="199.183" type="curve" smooth="yes"/>
      <point x="191" y="248.607"/>
      <point x="218.567" y="302.225"/>
      <point x="256.985" y="325.757" type="curve" smooth="yes"/>
      <point x="287.171" y="344.247" type="line"/>
      <point x="209.795" y="424.828" type="line"/>
      <point x="162.179" y="395.309" type="line" smooth="yes"/>
      <point x="93.4432" y="352.698"/>
      <point x="51" y="279.518"/>
    </contour>
    <contour>
      <point x="604.674" y="112.303" type="line"/>
      <point x="661.278" y="166.308"/>
      <point x="690" y="256.757"/>
      <point x="690" y="381" type="curve"/>
      <point x="551.892" y="380.739" type="line"/>
      <point x="550.582" y="379.261" type="line"/>
      <point x="552.418" y="369.174"/>
      <point x="554" y="349.16"/>
      <point x="554" y="336.015" type="curve" smooth="yes"/>
      <point x="554" y="293.611"/>
      <point x="540.351" y="244.441"/>
      <point x="517.495" y="204.505" type="curve"/>
    </contour>
  </outline>
  <guideline angle="211.675" x="212" y="420"/>
  <guideline angle="211.675" x="212" y="400"/>
  <guideline angle="211.675" x="212" y="298"/>
  <guideline angle="211.675" x="212" y="291"/>
  <guideline angle="134.007" x="716" y="-1"/>
  <guideline angle="314.104" x="212.955" y="421"/>
</glyph>
<glyph name="quotesingle" format="2">
  <advance width="230"/>
  <unicode hex="0027"/>
  <outline>
    <contour>
      <point x="66" y="432" type="line"/>
      <point x="164" y="432" type="line"/>
      <point x="190" y="722" type="line"/>
      <point x="40" y="722" type="line"/>
    </contour>
  </outline>
</glyph>
<glyph name="parenleft" format="2">
  <advance width="310"/>
  <unicode hex="0028"/>
  <outline>
    <contour>
      <point x="140" y="-132" type="curve"/>
      <point x="250" y="-132" type="line"/>
      <point x="195" y="25"/>
      <point x="168" y="170"/>
      <point x="168" y="303" type="curve" smooth="yes"/>
      <point x="168" y="438"/>
      <point x="195" y="583"/>
      <point x="250" y="737" type="curve"/>
      <point x="140" y="737" type="line"/>
      <point x="77" y="600"/>
      <point x="46" y="455"/>
      <point x="46" y="303" type="curve" smooth="yes"/>
      <point x="46" y="152"/>
      <point x="77" y="7"/>
    </contour>
  </outline>
</glyph>
<glyph name="two" format="2">
  <advance width="573"/>
  <unicode hex="0032"/>
  <outline>
    <contour>
      <point x="31" y="0" type="line"/>
      <point x="541" y="0" type="line"/>
      <point x="541" y="114" type="line"/>
      <point x="174" y="114" type="line"/>
      <point x="174.041" y="106.723" type="line"/>
      <point x="366.903" y="223.474"/>
      <point x="540" y="356.467"/>
      <point x="540" y="527" type="curve" smooth="yes"/>
      <point x="540" y="652"/>
      <point x="446" y="735"/>
      <point x="308" y="735" type="curve" smooth="yes"/>
      <point x="164" y="735"/>
      <point x="58" y="645"/>
      <point x="58" y="523" type="curve"/>
      <point x="203" y="523" type="line"/>
      <point x="203" y="583"/>
      <point x="246" y="626"/>
      <point x="302" y="626" type="curve" smooth="yes"/>
      <point x="358" y="626"/>
      <point x="401" y="583"/>
      <point x="401" y="533" type="curve" smooth="yes"/>
      <point x="401" y="418"/>
      <point x="279" y="275"/>
      <point x="31" y="128" type="curve"/>
    </contour>
  </outline>
</glyph>
<glyph name="semicolon" format="2">
  <advance width="310"/>
  <unicode hex="003B"/>
  <outline>
    <contour>
      <point x="9.63248" y="-129" type="line"/>
      <point x="104.632" y="-129" type="line"/>
      <point x="224.632" y="123" type="line"/>
      <point x="88.6325" y="123" type="line"/>
    </contour>
    <contour>
      <point x="87.5" y="368" type="line"/>
      <point x="223.5" y="368" type="line"/>
      <point x="223.5" y="510.476" type="line"/>
      <point x="87.5" y="510.476" type="line"/>
    </contour>
  </outline>
  <guideline angle="90" x="92" y="0"/>
  <guideline angle="90" x="218" y="0"/>
</glyph>
<glyph name="A" format="2">
  <advance width="710"/>
  <unicode hex="0041"/>
  <anchor x="355" y="797" name="top"/>
  <anchor x="355" y="-75" name="bottom"/>
  <anchor x="355" y="666" name="t.ring"/>
  <anchor x="152" y="722" name="tonos"/>
  <anchor x="700" y="0" name="ogonekUC"/>
  <outline>
    <contour>
      <point x="10" y="0" type="line"/>
      <point x="155" y="0" type="line"/>
      <point x="360.013" y="578.137" type="line"/>
      <point x="349.987" y="578.137" type="line"/>
      <point x="555" y="0" type="line"/>
      <point x="700" y="0" type="line"/>
      <point x="430" y="722" type="line"/>
      <point x="281" y="722" type="line"/>
    </contour>
    <contour>
      <point x="488" y="269" type="line"/>
      <point x="227" y="269" type="line"/>
      <point x="185" y="154" type="line"/>
      <point x="530" y="154" type="line"/>
    </contour>
  </outline>
  <guideline angle="289.531" x="356" y="561"/>
  <guideline angle="70.4692" x="155" y="0"/>
  <guideline angle="90" x="355" y="0"/>
  <guideline angle="0" x="0" y="231"/>
  <guideline angle="0" x="0" y="255"/>
  <guideline angle="289.525" x="355" y="564"/>
  <guideline angle="70.475" x="155" y="0"/>
</glyph>
<glyph name="B" format="2">
  <advance width="663"/>
  <unicode hex="0042"/>
  <anchor x="269" y="797" name="top"/>
  <outline>
    <component base="I" xOffset="-10"/>
    <contour>
      <point x="195" y="0" type="line"/>
      <point x="367" y="0" type="line" smooth="yes"/>
      <point x="516" y="0"/>
      <point x="609" y="74"/>
      <point x="609" y="189" type="curve" smooth="yes"/>
      <point x="609" y="294.392"/>
      <point x="562.254" y="349.991"/>
      <point x="454.297" y="373" type="curve"/>
      <point x="454.297" y="377" type="line"/>
      <point x="538.711" y="406.138"/>
      <point x="575" y="470"/>
      <point x="575" y="552" type="curve" smooth="yes"/>
      <point x="575" y="660.215"/>
      <point x="496.617" y="722"/>
      <point x="357" y="722" type="curve" smooth="yes"/>
      <point x="195" y="722" type="line"/>
      <point x="195" y="607" type="line"/>
      <point x="316" y="607" type="line" smooth="yes"/>
      <point x="383.649" y="607"/>
      <point x="425" y="572.687"/>
      <point x="425" y="515" type="curve" smooth="yes"/>
      <point x="425" y="462"/>
      <point x="378" y="427"/>
      <point x="305" y="427" type="curve" smooth="yes"/>
      <point x="195" y="427" type="line"/>
      <point x="195" y="313" type="line"/>
      <point x="336" y="313" type="line" smooth="yes"/>
      <point x="411" y="313"/>
      <point x="459" y="272"/>
      <point x="459" y="209" type="curve" smooth="yes"/>
      <point x="459" y="146"/>
      <point x="412" y="115"/>
      <point x="315" y="115" type="curve" smooth="yes"/>
      <point x="195" y="115" type="line"/>
    </contour>
  </outline>
</glyph>
<glyph name="C" format="2">
  <advance width="727"/>
  <unicode hex="0043"/>
  <anchor x="361" y="797" name="top"/>
  <anchor x="376" y="-75" name="bottom"/>
  <anchor x="357" y="0" name="b.cedilla"/>
  <outline>
    <contour>
      <point x="36" y="361" type="curve" smooth="yes"/>
      <point x="36" y="143"/>
      <point x="148" y="-14"/>
      <point x="366" y="-14" type="curve" smooth="yes"/>
      <point x="540.183" y="-14"/>
      <point x="655.783" y="89.2"/>
      <point x="667" y="244" type="curve"/>
      <point x="516" y="244" type="line"/>
      <point x="505.714" y="157.6"/>
      <point x="444.514" y="100"/>
      <point x="363" y="100" type="curve" smooth="yes"/>
      <point x="237" y="100"/>
      <point x="187" y="192"/>
      <point x="187" y="361" type="curve" smooth="yes"/>
      <point x="187" y="531"/>
      <point x="238" y="622"/>
      <point x="360" y="622" type="curve" smooth="yes"/>
      <point x="444.018" y="622"/>
      <point x="507.618" y="570.4"/>
      <point x="519" y="493" type="curve"/>
      <point x="664" y="493" type="line"/>
      <point x="653.66" y="638.8"/>
      <point x="539.26" y="736"/>
      <point x="378" y="736" type="curve" smooth="yes"/>
      <point x="148" y="736"/>
      <point x="36" y="579"/>
    </contour>
  </outline>
  <guideline angle="90" x="1661" y="0"/>
</glyph>
<glyph name="D" format="2">
  <advance width="718"/>
  <unicode hex="0044"/>
  <anchor x="262" y="797" name="top"/>
  <outline>
    <component base="I" xOffset="-10"/>
    <contour>
      <point x="127.5" y="0" type="line"/>
      <point x="389" y="0" type="line" smooth="yes"/>
      <point x="553" y="0"/>
      <point x="664" y="126.505"/>
      <point x="664" y="359" type="curve" smooth="yes"/>
      <point x="664" y="594.086"/>
      <point x="553" y="722"/>
      <point x="389" y="722" type="curve" smooth="yes"/>
      <point x="127.5" y="722" type="line"/>
      <point x="127.5" y="607" type="line"/>
      <point x="349" y="607" type="line" smooth="yes"/>
      <point x="463" y="607"/>
      <point x="514" y="530.345"/>
      <point x="514" y="359" type="curve" smooth="yes"/>
      <point x="514" y="189.727"/>
      <point x="463" y="114"/>
      <point x="349" y="114" type="curve" smooth="yes"/>
      <point x="127.5" y="114" type="line"/>
    </contour>
  </outline>
</glyph>
<glyph name="E" format="2">
  <advance width="616"/>
  <unicode hex="0045"/>
  <anchor x="292" y="797" name="top"/>
  <anchor x="-13" y="722" name="tonos"/>
  <anchor x="317" y="0" name="b.cedilla"/>
  <anchor x="370" y="0" name="ogonekUC"/>
  <outline>
    <component base="I" xOffset="-10"/>
    <contour>
      <point x="190" y="116" type="line"/>
      <point x="190" y="0" type="line"/>
      <point x="547" y="0" type="line"/>
      <point x="547" y="116" type="line"/>
    </contour>
    <contour>
      <point x="190" y="431" type="line"/>
      <point x="190" y="315" type="line"/>
      <point x="517" y="315" type="line"/>
      <point x="517" y="431" type="line"/>
    </contour>
    <contour>
      <point x="190" y="722" type="line"/>
      <point x="190" y="606" type="line"/>
      <point x="537" y="606" type="line"/>
      <point x="537" y="722" type="line"/>
    </contour>
  </outline>
  <guideline angle="90" x="440" y="0"/>
  <guideline angle="90" x="70" y="0"/>
  <guideline angle="90" x="291" y="0"/>
  <guideline angle="90" x="221" y="0"/>
  <guideline angle="90" x="256" y="0"/>
</glyph>
<glyph name="F" format="2">
  <advance width="583"/>
  <unicode hex="0046"/>
  <anchor x="302" y="797" name="top"/>
  <outline>
    <component base="I"/>
    <contour>
      <point x="200" y="431" type="line"/>
      <point x="200" y="315" type="line"/>
      <point x="527" y="315" type="line"/>
      <point x="527" y="431" type="line"/>
    </contour>
    <contour>
      <point x="200" y="722" type="line"/>
      <point x="200" y="606" type="line"/>
      <point x="547" y="606" type="line"/>
      <point x="547" y="722" type="line"/>
    </contour>
  </outline>
</glyph>
<glyph name="G" format="2">
  <advance width="774"/>
  <unicode hex="0047"/>
  <anchor x="378" y="797" name="top"/>
  <anchor x="378" y="-57" name="bottom"/>
  <outline>
    <contour>
      <point x="36" y="361" type="curve" smooth="yes"/>
      <point x="36" y="130"/>
      <point x="167" y="-14"/>
      <point x="378" y="-14" type="curve" smooth="yes"/>
      <point x="463" y="-14"/>
      <point x="583" y="4"/>
      <point x="677" y="31" type="curve"/>
      <point x="677" y="384" type="line"/>
      <point x="397" y="384" type="line"/>
      <point x="397" y="268" type="line"/>
      <point x="527" y="268" type="line"/>
      <point x="527" y="116" type="line"/>
      <point x="495" y="106"/>
      <point x="434.78" y="100"/>
      <point x="400" y="100" type="curve" smooth="yes"/>
      <point x="272" y="100"/>
      <point x="187" y="204"/>
      <point x="187" y="361" type="curve" smooth="yes"/>
      <point x="187" y="518"/>
      <point x="263" y="622"/>
      <point x="378" y="622" type="curve" smooth="yes"/>
      <point x="466" y="622"/>
      <point x="514" y="571"/>
      <point x="524" y="495" type="curve"/>
      <point x="675" y="495" type="line"/>
      <point x="665" y="640"/>
      <point x="556" y="736"/>
      <point x="378" y="736" type="curve" smooth="yes"/>
      <point x="166" y="736"/>
      <point x="36" y="593"/>
    </contour>
  </outline>
  <guideline angle="90" x="378" y="0"/>
</glyph>
<glyph name="K" format="2">
  <advance width="670"/>
  <unicode hex="004B"/>
  <anchor x="325" y="797" name="top"/>
  <anchor x="330" y="-75" name="bottom"/>
  <outline>
    <component base="I"/>
    <contour>
      <point x="202.176" y="388.721" type="line"/>
      <point x="480" y="0" type="line"/>
      <point x="660" y="0" type="line"/>
      <point x="355.002" y="428.906" type="line"/>
      <point x="355" y="372.295" type="line"/>
      <point x="630" y="722" type="line"/>
      <point x="460" y="722" type="line"/>
    </contour>
  </outline>
  <guideline angle="0" x="0" y="-57"/>
  <guideline angle="90" x="70" y="0"/>
  <guideline angle="90" x="660" y="0"/>
</glyph>
<glyph name="M" format="2">
  <advance width="890"/>
  <unicode hex="004D"/>
  <anchor x="455" y="797" name="top"/>
  <outline>
    <contour>
      <point x="60" y="0" type="line"/>
      <point x="210" y="0" type="line"/>
      <point x="210" y="722" type="line"/>
      <point x="60" y="722" type="line"/>
    </contour>
    <contour>
      <point x="680" y="0" type="line"/>
      <point x="830" y="0" type="line"/>
      <point x="830" y="722" type="line"/>
      <point x="680" y="722" type="line"/>
    </contour>
    <contour>
      <point x="383" y="0" type="line"/>
      <point x="527" y="0" type="line"/>
      <point x="740" y="722" type="line"/>
      <point x="602" y="722" type="line"/>
      <point x="450.73" y="185.621" type="line"/>
      <point x="459.27" y="185.621" type="line"/>
      <point x="287" y="722" type="line"/>
      <point x="150" y="722" type="line"/>
    </contour>
  </outline>
  <guideline angle="90" x="455" y="0"/>
</glyph>
<glyph name="O" format="2">
  <advance width="776"/>
  <unicode hex="004F"/>
  <anchor x="382" y="797" name="top"/>
  <anchor x="82" y="722" name="tonos"/>
  <anchor x="388" y="-75" name="bottom"/>
  <anchor x="420" y="0" name="ogonekUC"/>
  <outline>
    <contour>
      <point x="46" y="361" type="curve" smooth="yes"/>
      <point x="46" y="125.904"/>
      <point x="173.592" y="-14"/>
      <point x="388" y="-14" type="curve" smooth="yes"/>
      <point x="602.408" y="-14"/>
      <point x="730" y="125.904"/>
      <point x="730" y="361" type="curve" smooth="yes"/>
      <point x="730" y="596.096"/>
      <point x="602.408" y="736"/>
      <point x="388" y="736" type="curve" smooth="yes"/>
      <point x="173.592" y="736"/>
      <point x="46" y="596.096"/>
    </contour>
    <contour>
      <point x="202" y="361" type="curve" smooth="yes"/>
      <point x="202" y="540.27"/>
      <point x="259.258" y="620"/>
      <point x="388" y="620" type="curve" smooth="yes"/>
      <point x="516.742" y="620"/>
      <point x="574" y="540.27"/>
      <point x="574" y="361" type="curve" smooth="yes"/>
      <point x="574" y="181.73"/>
      <point x="516.742" y="102"/>
      <point x="388" y="102" type="curve" smooth="yes"/>
      <point x="259.258" y="102"/>
      <point x="202" y="181.73"/>
    </contour>
  </outline>
  <guideline angle="90" x="70" y="0"/>
  <guideline angle="90" x="90" y="0"/>
  <guideline angle="0" x="0" y="704"/>
</glyph>
<glyph name="P" format="2">
  <advance width="633"/>
  <unicode hex="0050"/>
  <anchor x="284" y="797" name="top"/>
  <anchor x="321" y="-75" name="bottom"/>
  <outline>
    <contour>
      <point x="154.846" y="606" type="line"/>
      <point x="312.415" y="606" type="line" smooth="yes"/>
      <point x="386.566" y="606"/>
      <point x="436" y="562"/>
      <point x="436" y="496" type="curve" smooth="yes"/>
      <point x="436" y="431.2"/>
      <point x="386.566" y="388"/>
      <point x="312.415" y="388" type="curve" smooth="yes"/>
      <point x="154.846" y="388" type="line"/>
      <point x="154.846" y="273" type="line"/>
      <point x="345.294" y="273" type="line" smooth="yes"/>
      <point x="490.318" y="273"/>
      <point x="587" y="365"/>
      <point x="587" y="503" type="curve" smooth="yes"/>
      <point x="587" y="633.8"/>
      <point x="490.318" y="721"/>
      <point x="345.294" y="721" type="curve" smooth="yes"/>
      <point x="154.846" y="721" type="line"/>
    </contour>
    <contour>
      <point x="60" y="0" type="line"/>
      <point x="205" y="0" type="line"/>
      <point x="205" y="721.032" type="line"/>
      <point x="60" y="721" type="line"/>
    </contour>
  </outline>
</glyph>
<glyph name="Q" format="2">
  <advance width="800"/>
  <unicode hex="0051"/>
  <anchor x="370" y="807" name="top"/>
  <anchor x="379" y="-75" name="bottom"/>
  <outline>
    <component base="O"/>
    <contour>
      <point x="595.622" y="86.2256" type="curve"/>
      <point x="444.2" y="-9.8" type="line"/>
      <point x="461" y="-7" type="line" smooth="yes"/>
      <point x="477" y="-4"/>
      <point x="532" y="0"/>
      <point x="579" y="0" type="curve" smooth="yes"/>
      <point x="780" y="0" type="line"/>
      <point x="780" y="115" type="line"/>
      <point x="713.715" y="111.74"/>
      <point x="650.973" y="102.576"/>
    </contour>
  </outline>
</glyph>
<glyph name="R" format="2">
  <advance width="692"/>
  <unicode hex="0052"/>
  <anchor x="297" y="797" name="top"/>
  <anchor x="329" y="-57" name="bottom"/>
  <outline>
    <component base="I" xOffset="-10"/>
    <contour>
      <point x="60" y="608" type="line"/>
      <point x="340" y="608" type="line" smooth="yes"/>
      <point x="426" y="608"/>
      <point x="468" y="573"/>
      <point x="468" y="507" type="curve" smooth="yes"/>
      <point x="468" y="448"/>
      <point x="412" y="410"/>
      <point x="330" y="410" type="curve" smooth="yes"/>
      <point x="195" y="410" type="line"/>
      <point x="195" y="295" type="line"/>
      <point x="340" y="295" type="line" smooth="yes"/>
      <point x="430" y="295"/>
      <point x="450.295" y="232.022"/>
      <point x="456" y="155" type="curve" smooth="yes"/>
      <point x="458" y="128" type="line" smooth="yes"/>
      <point x="461.264" y="83.9393"/>
      <point x="471" y="29"/>
      <point x="482" y="0" type="curve"/>
      <point x="636" y="0" type="line"/>
      <point x="623" y="37"/>
      <point x="613.664" y="77.0957"/>
      <point x="607" y="121" type="curve" smooth="yes"/>
      <point x="590" y="233" type="line" smooth="yes"/>
      <point x="576.012" y="325.159"/>
      <point x="545" y="341"/>
      <point x="463" y="361" type="curve"/>
      <point x="463" y="357" type="line"/>
      <point x="557" y="378"/>
      <point x="618" y="439"/>
      <point x="618" y="529" type="curve" smooth="yes"/>
      <point x="618" y="691"/>
      <point x="475" y="723"/>
      <point x="340" y="723" type="curve" smooth="yes"/>
      <point x="60" y="723" type="line"/>
    </contour>
  </outline>
  <guideline angle="0" x="0" y="328"/>
</glyph>
<glyph name="S" format="2">
  <advance width="664"/>
  <unicode hex="0053"/>
  <anchor x="332" y="797" name="top"/>
  <anchor x="345" y="-75" name="bottom"/>
  <anchor x="347" y="0" name="b.cedilla"/>
  <outline>
    <contour>
      <point x="46" y="230" type="line"/>
      <point x="46" y="84.059"/>
      <point x="160.318" y="-12"/>
      <point x="332.047" y="-12" type="curve" smooth="yes"/>
      <point x="501.066" y="-12"/>
      <point x="618" y="81.0528"/>
      <point x="618" y="214" type="curve" smooth="yes"/>
      <point x="618" y="335.546"/>
      <point x="555.496" y="385.78"/>
      <point x="353.174" y="428" type="curve" smooth="yes"/>
      <point x="262.454" y="446.931"/>
      <point x="216.091" y="489.547"/>
      <point x="216.091" y="545.988" type="curve" smooth="yes"/>
      <point x="216.091" y="598.61"/>
      <point x="256.668" y="628"/>
      <point x="335.017" y="628" type="curve" smooth="yes"/>
      <point x="401.834" y="628"/>
      <point x="445.991" y="583.875"/>
      <point x="445.991" y="520" type="curve"/>
      <point x="596" y="520" type="line"/>
      <point x="596" y="655.829"/>
      <point x="501.604" y="737"/>
      <point x="340.299" y="737" type="curve" smooth="yes"/>
      <point x="164.186" y="737"/>
      <point x="66" y="663.95"/>
      <point x="66" y="532.92" type="curve" smooth="yes"/>
      <point x="66" y="436.172"/>
      <point x="143.682" y="343.742"/>
      <point x="312.565" y="308.243" type="curve" smooth="yes"/>
      <point x="427.831" y="284.014"/>
      <point x="471" y="249.235"/>
      <point x="471" y="198.493" type="curve" smooth="yes"/>
      <point x="471" y="140.714"/>
      <point x="414.973" y="103"/>
      <point x="337.035" y="103" type="curve" smooth="yes"/>
      <point x="235.431" y="103"/>
      <point x="196" y="139.912"/>
      <point x="196" y="230" type="curve"/>
    </contour>
  </outline>
  <guideline angle="346.485" x="29" y="448.094"/>
</glyph>
<glyph name="T" format="2">
  <advance width="596"/>
  <unicode hex="0054"/>
  <anchor x="298" y="797" name="top"/>
  <anchor x="297" y="0" name="b.cedilla"/>
  <outline>
    <contour>
      <point x="586" y="607" type="line"/>
      <point x="586" y="722" type="line"/>
      <point x="10" y="722" type="line"/>
      <point x="10" y="607" type="line"/>
      <point x="223" y="607" type="line"/>
      <point x="223" y="0" type="line"/>
      <point x="373" y="0" type="line"/>
      <point x="373" y="607" type="line"/>
    </contour>
  </outline>
  <guideline angle="90" x="330" y="0"/>
</glyph>
<glyph name="grave" format="2">
  <advance width="270"/>
  <unicode hex="0060"/>
  <outline>
    <contour>
      <point x="250" y="580" type="line"/>
      <point x="170" y="730" type="line"/>
      <point x="20" y="730" type="line"/>
      <point x="130" y="580" type="line"/>
    </contour>
  </outline>
</glyph>
<glyph name="a" format="2">
  <advance width="554"/>
  <unicode hex="0061"/>
  <anchor x="275" y="580" name="top"/>
  <anchor x="275" y="580" name="t.ring"/>
  <anchor x="275" y="-50" name="bottom"/>
  <anchor x="510" y="0" name="ogonekLC"/>
  <outline>
    <contour>
      <point x="44" y="139" type="curve" smooth="yes"/>
      <point x="44" y="51"/>
      <point x="117" y="-14"/>
      <point x="219" y="-14" type="curve" smooth="yes"/>
      <point x="283" y="-14"/>
      <point x="328" y="11"/>
      <point x="375" y="72" type="curve"/>
      <point x="364" y="76" type="line"/>
      <point x="369" y="41"/>
      <point x="373" y="23"/>
      <point x="381" y="0" type="curve"/>
      <point x="510" y="0" type="line"/>
      <point x="499" y="43"/>
      <point x="491" y="111.95"/>
      <point x="491" y="202" type="curve" smooth="yes"/>
      <point x="491" y="374.63" type="line" smooth="yes"/>
      <point x="491" y="463.419"/>
      <point x="414.785" y="514"/>
      <point x="281" y="514" type="curve" smooth="yes"/>
      <point x="149" y="514"/>
      <point x="65" y="454"/>
      <point x="65" y="364" type="curve"/>
      <point x="201" y="364" type="line"/>
      <point x="201" y="411"/>
      <point x="228" y="435"/>
      <point x="278" y="435" type="curve" smooth="yes"/>
      <point x="330" y="435"/>
      <point x="355" y="410"/>
      <point x="355" y="357" type="curve" smooth="yes"/>
      <point x="355" y="197" type="line" smooth="yes"/>
      <point x="355" y="124"/>
      <point x="320" y="76"/>
      <point x="262" y="76" type="curve" smooth="yes"/>
      <point x="216" y="76"/>
      <point x="180" y="108"/>
      <point x="180" y="149" type="curve" smooth="yes"/>
      <point x="180" y="200"/>
      <point x="232" y="230"/>
      <point x="314" y="230" type="curve" smooth="yes"/>
      <point x="338" y="230"/>
      <point x="362" y="228"/>
      <point x="396" y="223" type="curve"/>
      <point x="392" y="301" type="line"/>
      <point x="346" y="307"/>
      <point x="321" y="309"/>
      <point x="283" y="309" type="curve" smooth="yes"/>
      <point x="130" y="309"/>
      <point x="44" y="259"/>
    </contour>
  </outline>
  <guideline angle="90" x="275" y="0"/>
</glyph>
<glyph name="b" format="2">
  <advance width="625"/>
  <unicode hex="0062"/>
  <anchor x="319" y="797" name="top"/>
  <anchor x="312" y="-88" name="bottom"/>
  <outline>
    <contour>
      <point x="60" y="-0.4719" type="curve"/>
      <point x="196" y="-0.4719" type="line"/>
      <point x="199.6" y="15.1658"/>
      <point x="202" y="31.6747"/>
      <point x="202" y="45.3873" type="curve" smooth="yes"/>
      <point x="202" y="58.8854"/>
      <point x="199.674" y="86.1156"/>
      <point x="196" y="109.314" type="curve"/>
      <point x="187.764" y="109.116" type="line"/>
      <point x="188" y="422.923" type="line"/>
      <point x="196" y="422.949" type="line"/>
      <point x="201.328" y="460.085"/>
      <point x="202" y="489.591"/>
      <point x="202" y="533.956" type="curve" smooth="yes"/>
      <point x="202" y="722" type="line"/>
      <point x="66" y="722" type="line"/>
      <point x="66" y="157.281" type="line" smooth="yes"/>
      <point x="66" y="117.823"/>
      <point x="65.9205" y="32.9976"/>
    </contour>
    <contour>
      <point x="177.237" y="45.0378" type="line"/>
      <point x="203.669" y="45.1461" type="line"/>
      <point x="239.929" y="9.65847"/>
      <point x="298.114" y="-14"/>
      <point x="349.132" y="-14" type="curve" smooth="yes"/>
      <point x="488.253" y="-14"/>
      <point x="581" y="97.669"/>
      <point x="581" y="265.173" type="curve" smooth="yes"/>
      <point x="581" y="414.469"/>
      <point x="491.794" y="514"/>
      <point x="357.985" y="514" type="curve" smooth="yes"/>
      <point x="293.352" y="514"/>
      <point x="230.792" y="490.198"/>
      <point x="201.585" y="454.495" type="curve"/>
      <point x="177.219" y="453.532" type="line"/>
    </contour>
    <contour>
      <point x="199" y="253.878" type="curve" smooth="yes"/>
      <point x="199" y="358.351"/>
      <point x="249.655" y="428"/>
      <point x="325.637" y="428" type="curve" smooth="yes"/>
      <point x="397.855" y="428"/>
      <point x="446" y="356.8"/>
      <point x="446" y="250" type="curve" smooth="yes"/>
      <point x="446" y="143.2"/>
      <point x="397.557" y="72"/>
      <point x="324.894" y="72" type="curve" smooth="yes"/>
      <point x="249.357" y="72"/>
      <point x="199" y="144.751"/>
    </contour>
  </outline>
  <guideline angle="90" x="312.5" y="0"/>
</glyph>
<glyph name="c" format="2">
  <advance width="524"/>
  <unicode hex="0063"/>
  <anchor x="266" y="580" name="top"/>
  <anchor x="249" y="0" name="b.cedilla"/>
  <outline>
    <contour>
      <point x="44" y="243" type="curve" smooth="yes"/>
      <point x="44" y="406"/>
      <point x="120" y="514"/>
      <point x="273" y="514" type="curve" smooth="yes"/>
      <point x="404" y="514"/>
      <point x="480" y="461"/>
      <point x="480" y="324" type="curve"/>
      <point x="348" y="324" type="line"/>
      <point x="343" y="379"/>
      <point x="330" y="428"/>
      <point x="273" y="428" type="curve" smooth="yes"/>
      <point x="188" y="428"/>
      <point x="179" y="321"/>
      <point x="179" y="248" type="curve" smooth="yes"/>
      <point x="179" y="160"/>
      <point x="180" y="72"/>
      <point x="270" y="72" type="curve" smooth="yes"/>
      <point x="334" y="72"/>
      <point x="345" y="115"/>
      <point x="345" y="184" type="curve"/>
      <point x="480" y="184" type="line"/>
      <point x="480" y="55"/>
      <point x="410" y="-14"/>
      <point x="276" y="-14" type="curve" smooth="yes"/>
      <point x="125" y="-14"/>
      <point x="44" y="75"/>
    </contour>
  </outline>
  <guideline angle="90" x="262" y="0"/>
  <guideline angle="0" x="0" y="580"/>
</glyph>
<glyph name="e" format="2">
  <advance width="550"/>
  <unicode hex="0065"/>
  <anchor x="275" y="580" name="top"/>
  <anchor x="275" y="-89" name="bottom"/>
  <anchor x="249" y="0" name="b.cedilla"/>
  <anchor x="310" y="0" name="ogonekLC"/>
  <outline>
    <contour>
      <point x="44" y="241" type="curve" smooth="yes"/>
      <point x="44" y="89"/>
      <point x="114" y="-14"/>
      <point x="284.881" y="-14" type="curve" smooth="yes"/>
      <point x="412" y="-14"/>
      <point x="488" y="43"/>
      <point x="499" y="156" type="curve"/>
      <point x="363" y="156" type="line"/>
      <point x="357" y="108"/>
      <point x="331" y="72"/>
      <point x="275" y="72" type="curve" smooth="yes"/>
      <point x="204.753" y="72"/>
      <point x="182.774" y="152.902"/>
      <point x="182.774" y="271.625" type="curve" smooth="yes"/>
      <point x="182.774" y="338.48"/>
      <point x="185.323" y="429"/>
      <point x="275" y="429" type="curve" smooth="yes"/>
      <point x="347.848" y="429"/>
      <point x="365.464" y="365.29"/>
      <point x="365.464" y="290.185" type="curve"/>
      <point x="480.35" y="223" type="line"/>
      <point x="506" y="223" type="line"/>
      <point x="506" y="261" type="line" smooth="yes"/>
      <point x="506" y="401"/>
      <point x="440" y="514"/>
      <point x="281" y="514" type="curve" smooth="yes"/>
      <point x="121" y="514"/>
      <point x="44" y="400"/>
    </contour>
    <contour>
      <point x="149" y="223" type="line"/>
      <point x="506" y="223" type="line"/>
      <point x="506" y="232.107" type="line"/>
      <point x="381" y="308" type="line"/>
      <point x="149" y="308" type="line"/>
    </contour>
  </outline>
  <guideline angle="90" x="275" y="0"/>
</glyph>
<glyph name="k" format="2">
  <advance width="554"/>
  <unicode hex="006B"/>
  <anchor x="295" y="797" name="top"/>
  <anchor x="285" y="-57" name="bottom"/>
  <outline>
    <component base="l"/>
    <contour>
      <point x="544" y="0" type="line"/>
      <point x="341.184" y="293.876" type="line"/>
      <point x="340.318" y="274.781" type="line"/>
      <point x="528" y="500" type="line"/>
      <point x="366" y="500" type="line"/>
      <point x="194.683" y="282.853" type="line"/>
      <point x="380" y="0" type="line"/>
    </contour>
  </outline>
  <guideline angle="231.761" x="352" y="500"/>
  <guideline angle="50.1944" x="334" y="284"/>
  <guideline angle="124.611" x="530" y="0"/>
  <guideline angle="303.173" x="181" y="283"/>
  <guideline angle="90" x="195" y="0"/>
  <guideline angle="90" x="60" y="0"/>
</glyph>
<glyph name="n" format="2">
  <advance width="586"/>
  <unicode hex="006E"/>
  <anchor x="293" y="580" name="top"/>
  <anchor x="299" y="-57" name="bottom"/>
  <outline>
    <component base="dotlessi"/>
    <contour>
      <point x="176" y="279" type="line"/>
      <point x="196" y="279" type="line"/>
      <point x="196" y="377"/>
      <point x="234" y="432"/>
      <point x="302" y="432" type="curve" smooth="yes"/>
      <point x="361" y="432"/>
      <point x="391" y="390.145"/>
      <point x="391" y="307" type="curve" smooth="yes"/>
      <point x="391" y="0" type="line"/>
      <point x="527" y="0" type="line"/>
      <point x="527" y="334" type="line" smooth="yes"/>
      <point x="527" y="450"/>
      <point x="465" y="514"/>
      <point x="356" y="514" type="curve" smooth="yes"/>
      <point x="286" y="514"/>
      <point x="237" y="488"/>
      <point x="198" y="433" type="curve"/>
      <point x="176" y="433" type="line"/>
    </contour>
  </outline>
</glyph>
<glyph name="t" format="2">
  <advance width="423"/>
  <unicode hex="0074"/>
  <anchor x="212" y="722" name="top"/>
  <anchor x="249" y="0" name="b.cedilla"/>
  <outline>
    <contour>
      <point x="130" y="119" type="line" smooth="yes"/>
      <point x="130" y="36"/>
      <point x="205" y="-14"/>
      <point x="291" y="-14" type="curve" smooth="yes"/>
      <point x="328" y="-14"/>
      <point x="362" y="-8"/>
      <point x="393" y="3" type="curve"/>
      <point x="393" y="88" type="line"/>
      <point x="378" y="82"/>
      <point x="361" y="79"/>
      <point x="343" y="79" type="curve" smooth="yes"/>
      <point x="295" y="79"/>
      <point x="265" y="107"/>
      <point x="265" y="157" type="curve" smooth="yes"/>
      <point x="265" y="647" type="line"/>
      <point x="130" y="577" type="line"/>
    </contour>
    <contour>
      <point x="250" y="415" type="line"/>
      <point x="384" y="415" type="line"/>
      <point x="384" y="500" type="line"/>
      <point x="250" y="500" type="line"/>
    </contour>
    <contour>
      <point x="30" y="415" type="line"/>
      <point x="145" y="415" type="line"/>
      <point x="145" y="500" type="line"/>
      <point x="30" y="500" type="line"/>
    </contour>
  </outline>
  <guideline angle="207.408" x="265" y="647"/>
</glyph>
<glyph name="w" format="2">
  <advance width="876"/>
  <unicode hex="0077"/>
  <anchor x="438" y="580" name="top"/>
  <outline>
    <contour>
      <point x="856" y="500" type="line"/>
      <point x="717" y="500" type="line"/>
      <point x="616.648" y="158.478" type="line"/>
      <point x="624.638" y="157.565" type="line"/>
      <point x="516" y="500" type="line"/>
      <point x="360" y="500" type="line"/>
      <point x="251.362" y="158.565" type="line"/>
      <point x="258.352" y="158.478" type="line"/>
      <point x="159" y="500" type="line"/>
      <point x="20" y="500" type="line"/>
      <point x="173" y="0" type="line"/>
      <point x="333" y="0" type="line"/>
      <point x="441.448" y="361.494" type="line"/>
      <point x="434.552" y="361.494" type="line"/>
      <point x="543" y="0" type="line"/>
      <point x="703" y="0" type="line"/>
    </contour>
  </outline>
  <guideline angle="107.014" x="173" y="0"/>
  <guideline angle="286.22" x="159" y="500"/>
  <guideline angle="72.3499" x="255" y="170"/>
  <guideline angle="253.301" x="438" y="350"/>
  <guideline angle="106.699" x="543" y="0"/>
  <guideline angle="287.65" x="516" y="500"/>
  <guideline angle="73.7798" x="621" y="170"/>
  <guideline angle="252.986" x="856" y="500"/>
  <guideline angle="90" x="234" y="0"/>
  <guideline angle="90" x="438" y="0"/>
  <guideline angle="90" x="621" y="0"/>
  <guideline angle="0" x="0" y="19"/>
  <guideline angle="0" x="0" y="485"/>
</glyph>
<glyph name="currency" format="2">
  <advance width="609"/>
  <unicode hex="00A4"/>
  <outline>
    <contour>
      <point x="35.7" y="426.1" type="curve" smooth="yes"/>
      <point x="35.7" y="274.993"/>
      <point x="160.696" y="151.8"/>
      <point x="311.3" y="151.8" type="curve" smooth="yes"/>
      <point x="463.961" y="151.8"/>
      <point x="582.824" y="278.334"/>
      <point x="584.3" y="427.4" type="curve" smooth="yes"/>
      <point x="585.77" y="575.832"/>
      <point x="460.796" y="701.7"/>
      <point x="312.6" y="701.7" type="curve" smooth="yes"/>
      <point x="155.469" y="701.7"/>
      <point x="35.7" y="581.213"/>
    </contour>
    <contour>
      <point x="170.4" y="427.05" type="curve" smooth="yes"/>
      <point x="170.4" y="504.45"/>
      <point x="233.4" y="566.55"/>
      <point x="310.8" y="566.55" type="curve" smooth="yes"/>
      <point x="385.5" y="566.55"/>
      <point x="447.6" y="501.75"/>
      <point x="447.6" y="427.95" type="curve" smooth="yes"/>
      <point x="447.6" y="353.25"/>
      <point x="385.5" y="288.45"/>
      <point x="310.8" y="288.45" type="curve" smooth="yes"/>
      <point x="234.3" y="288.45"/>
      <point x="170.4" y="350.55"/>
    </contour>
    <contour>
      <point x="212.505" y="637.219" type="line"/>
      <point x="81.6" y="763.2" type="line"/>
      <point x="-24.2" y="657.4" type="line"/>
      <point x="106.705" y="531.419" type="line"/>
    </contour>
    <contour>
      <point x="514.676" y="533.725" type="line"/>
      <point x="632.658" y="657.297" type="line"/>
      <point x="526.2" y="763.242" type="line"/>
      <point x="405.734" y="636.328" type="line"/>
    </contour>
    <contour>
      <point x="421.657" y="203.048" type="line"/>
      <point x="532.062" y="92.6429" type="line"/>
      <point x="635.605" y="201.069" type="line"/>
      <point x="525.2" y="311.475" type="line"/>
    </contour>
    <contour>
      <point x="100.989" y="328.106" type="line"/>
      <point x="-36.4413" y="195.13" type="line"/>
      <point x="75.3587" y="93.33" type="line"/>
      <point x="212.789" y="226.306" type="line"/>
    </contour>
  </outline>
  <guideline angle="136.115" x="213" y="637"/>
  <guideline angle="226.623" x="526" y="763"/>
  <guideline angle="46.1885" x="515" y="534"/>
  <guideline angle="316.115" x="-24" y="657"/>
  <guideline angle="225" x="82" y="763"/>
  <guideline angle="135.269" x="633" y="657"/>
  <guideline angle="46.0809" x="532" y="93"/>
  <guideline angle="317.42" x="-36" y="195"/>
  <guideline angle="90" x="312" y="0"/>
  <guideline angle="0" x="0" y="431"/>
</glyph>
<glyph name="yen" format="2">
  <advance width="573"/>
  <unicode hex="00A5"/>
  <outline>
    <contour>
      <point x="572" y="722" type="line"/>
      <point x="423" y="722" type="line"/>
      <point x="282.086" y="408.052" type="line"/>
      <point x="291.914" y="408.052" type="line"/>
      <point x="151" y="722" type="line"/>
      <point x="2" y="722" type="line"/>
      <point x="218" y="272" type="line"/>
      <point x="220" y="272" type="line"/>
      <point x="220" y="0" type="line"/>
      <point x="354" y="0" type="line"/>
      <point x="354" y="272" type="line"/>
      <point x="356" y="272" type="line"/>
    </contour>
    <contour>
      <point x="203" y="338" type="line"/>
      <point x="13" y="338" type="line"/>
      <point x="13" y="272" type="line"/>
      <point x="235" y="272" type="line"/>
    </contour>
    <contour>
      <point x="339" y="272" type="line"/>
      <point x="561" y="272" type="line"/>
      <point x="561" y="338" type="line"/>
      <point x="371" y="338" type="line"/>
    </contour>
    <contour>
      <point x="113" y="523" type="line"/>
      <point x="13" y="523" type="line"/>
      <point x="13" y="457" type="line"/>
      <point x="145" y="457" type="line"/>
    </contour>
    <contour>
      <point x="429" y="457" type="line"/>
      <point x="561" y="457" type="line"/>
      <point x="561" y="523" type="line"/>
      <point x="460" y="523" type="line"/>
    </contour>
  </outline>
  <guideline angle="90" x="276" y="0"/>
  <guideline angle="90" x="267" y="0"/>
  <guideline angle="90" x="289" y="0"/>
  <guideline angle="114.182" x="292" y="408"/>
  <guideline angle="245.818" x="423" y="722"/>
</glyph>
<glyph name="section" format="2">
  <advance width="467"/>
  <unicode hex="00A7"/>
  <outline>
    <contour>
      <point x="0.0068" y="291.831" type="curve" smooth="yes"/>
      <point x="0.0068" y="227.831"/>
      <point x="53.1375" y="188.461"/>
      <point x="96.7937" y="161.831" type="curve" smooth="yes"/>
      <point x="276.427" y="49" type="line" smooth="yes"/>
      <point x="296.688" y="36.2445"/>
      <point x="304" y="17"/>
      <point x="304" y="-1" type="curve" smooth="yes"/>
      <point x="304" y="-49.0172"/>
      <point x="255.577" y="-81"/>
      <point x="182.878" y="-81" type="curve" smooth="yes"/>
      <point x="149.379" y="-81"/>
      <point x="104.918" y="-63"/>
      <point x="49.0164" y="-30" type="curve"/>
      <point x="49.0164" y="-137" type="line"/>
      <point x="86.2318" y="-162.053"/>
      <point x="168.462" y="-177"/>
      <point x="221.185" y="-177" type="curve" smooth="yes"/>
      <point x="342.428" y="-177"/>
      <point x="431" y="-97.9543"/>
      <point x="431" y="19" type="curve" smooth="yes"/>
      <point x="431" y="69"/>
      <point x="394.907" y="117.534"/>
      <point x="321.617" y="159" type="curve" smooth="yes"/>
      <point x="136.598" y="266.831" type="line" smooth="yes"/>
      <point x="117.143" y="278.223"/>
      <point x="110.007" y="295.831"/>
      <point x="110.007" y="316.948" type="curve" smooth="yes"/>
      <point x="110.007" y="380.357"/>
      <point x="174.35" y="413.645"/>
      <point x="224.127" y="438.303" type="curve"/>
      <point x="143.485" y="487.028" type="line"/>
      <point x="64.0882" y="458.714"/>
      <point x="0.0070281" y="409.947"/>
    </contour>
    <contour>
      <point x="48" y="567" type="curve" smooth="yes"/>
      <point x="48" y="505.187"/>
      <point x="82.9396" y="452.346"/>
      <point x="154.162" y="413.313" type="curve" smooth="yes"/>
      <point x="330.005" y="316.5" type="line" smooth="yes"/>
      <point x="353.299" y="304.223"/>
      <point x="361.094" y="281.5"/>
      <point x="361.094" y="260.5" type="curve" smooth="yes"/>
      <point x="361.094" y="199.351"/>
      <point x="274.979" y="146.577"/>
      <point x="240.417" y="143.595" type="curve"/>
      <point x="343.682" y="88.9906" type="line"/>
      <point x="418.731" y="126.856"/>
      <point x="481.094" y="183.215"/>
      <point x="481.094" y="278.5" type="curve" smooth="yes"/>
      <point x="481.094" y="341.5"/>
      <point x="432.904" y="385.183"/>
      <point x="391.094" y="410.5" type="curve" smooth="yes"/>
      <point x="201.588" y="525" type="line" smooth="yes"/>
      <point x="181.301" y="537.474"/>
      <point x="175" y="558"/>
      <point x="175" y="572.754" type="curve" smooth="yes"/>
      <point x="175" y="611"/>
      <point x="217.344" y="642"/>
      <point x="261.468" y="642" type="curve" smooth="yes"/>
      <point x="293.168" y="642"/>
      <point x="343.379" y="626"/>
      <point x="400" y="593" type="curve"/>
      <point x="400" y="692" type="line"/>
      <point x="356.333" y="722"/>
      <point x="315.777" y="734"/>
      <point x="243.931" y="734" type="curve" smooth="yes"/>
      <point x="133.234" y="734"/>
      <point x="48" y="663.115"/>
    </contour>
  </outline>
  <guideline angle="148.903" x="391" y="411"/>
  <guideline angle="331.526" x="154" y="413"/>
  <guideline angle="149.992" x="323" y="159"/>
  <guideline angle="328.165" x="96" y="162"/>
</glyph>
<glyph name="dieresis" format="2">
  <advance width="439"/>
  <unicode hex="00A8"/>
  <outline>
    <contour>
      <point x="380" y="600" type="line"/>
      <point x="380" y="720" type="line"/>
      <point x="270" y="720" type="line"/>
      <point x="270" y="600" type="line"/>
    </contour>
    <contour>
      <point x="170" y="600" type="line"/>
      <point x="170" y="720" type="line"/>
      <point x="60" y="720" type="line"/>
      <point x="60" y="600" type="line"/>
    </contour>
  </outline>
  <guideline angle="90" x="270" y="0"/>
  <guideline angle="90" x="170" y="0"/>
  <guideline angle="0" x="0" y="600"/>
  <guideline angle="90" x="220" y="0"/>
</glyph>
<glyph name="logicalnot" format="2">
  <advance width="619"/>
  <unicode hex="00AC"/>
  <outline>
    <contour>
      <point x="600" y="189" type="line"/>
      <point x="600" y="440" type="line"/>
      <point x="40" y="440" type="line"/>
      <point x="40" y="340" type="line"/>
      <point x="500" y="340" type="line"/>
      <point x="500" y="189" type="line"/>
    </contour>
  </outline>
</glyph>
<glyph name="uni00AD" format="2">
  <advance width="370"/>
  <unicode hex="00AD"/>
  <outline>
    <contour>
      <point x="330" y="249" type="line"/>
      <point x="330" y="349" type="line"/>
      <point x="40" y="349" type="line"/>
      <point x="40" y="249" type="line"/>
    </contour>
  </outline>
</glyph>
<glyph name="macron" format="2">
  <advance width="380"/>
  <unicode hex="00AF"/>
  <outline>
    <contour>
      <point x="380" y="600" type="line"/>
      <point x="380" y="700" type="line"/>
      <point x="0" y="700" type="line"/>
      <point x="0" y="600" type="line"/>
    </contour>
  </outline>
  <guideline angle="0" x="0" y="669"/>
  <guideline angle="90" x="190" y="0"/>
  <guideline angle="0" x="0" y="580"/>
  <guideline angle="0" x="0" y="600"/>
</glyph>
<glyph name="plusminus" format="2">
  <advance width="1000"/>
  <unicode hex="00B1"/>
  <outline>
    <contour>
      <point x="860" y="358" type="line"/>
      <point x="860" y="480" type="line"/>
      <point x="591" y="480" type="line"/>
      <point x="591" y="660" type="line"/>
      <point x="469" y="660" type="line"/>
      <point x="469" y="480" type="line"/>
      <point x="200" y="480" type="line"/>
      <point x="200" y="358" type="line"/>
      <point x="469" y="358" type="line"/>
      <point x="469" y="178" type="line"/>
      <point x="591" y="178" type="line"/>
      <point x="591" y="358" type="line"/>
    </contour>
    <contour>
      <point x="860" y="0" type="line"/>
      <point x="860" y="122" type="line"/>
      <point x="200" y="122" type="line"/>
      <point x="200" y="0" type="line"/>
    </contour>
  </outline>
</glyph>
<glyph name="twosuperior" format="2">
  <advance width="371"/>
  <unicode hex="00B2"/>
  <outline>
    <contour>
      <point x="29" y="410" type="line"/>
      <point x="29" y="341" type="line"/>
      <point x="335" y="341" type="line"/>
      <point x="335" y="402" type="line"/>
      <point x="120" y="402" type="line"/>
      <point x="122.015" y="395.344" type="line"/>
      <point x="177" y="432" type="line" smooth="yes"/>
      <point x="287.724" y="505.816"/>
      <point x="344" y="546.418"/>
      <point x="344" y="615.714" type="curve" smooth="yes"/>
      <point x="344" y="695.712"/>
      <point x="269" y="735"/>
      <point x="194.863" y="735" type="curve" smooth="yes"/>
      <point x="116" y="735"/>
      <point x="34" y="690.542"/>
      <point x="34" y="621" type="curve"/>
      <point x="141" y="621" type="line"/>
      <point x="141" y="653.764"/>
      <point x="162" y="674"/>
      <point x="191.806" y="674" type="curve" smooth="yes"/>
      <point x="223" y="674"/>
      <point x="240" y="651.836"/>
      <point x="240" y="622.927" type="curve" smooth="yes"/>
      <point x="240" y="578.412"/>
      <point x="195.868" y="541.111"/>
      <point x="71" y="443" type="curve" smooth="yes"/>
    </contour>
  </outline>
  <guideline angle="213.93" x="177" y="442"/>
  <guideline angle="38.1572" x="29" y="420"/>
  <guideline angle="0" x="0" y="-11"/>
</glyph>
<glyph name="acute" format="2">
  <advance width="270"/>
  <unicode hex="00B4"/>
  <outline>
    <contour>
      <point x="20" y="580" type="line"/>
      <point x="140" y="580" type="line"/>
      <point x="250" y="730" type="line"/>
      <point x="100" y="730" type="line"/>
    </contour>
  </outline>
</glyph>
<glyph name="cedilla" format="2">
  <advance width="299"/>
  <unicode hex="00B8"/>
  <outline>
    <contour>
      <point x="57" y="-106" type="line"/>
      <point x="90.8376" y="-118" type="line"/>
      <point x="105.47" y="-104"/>
      <point x="118.725" y="-98.9635"/>
      <point x="131.077" y="-99" type="curve" smooth="yes"/>
      <point x="150.587" y="-99.0576"/>
      <point x="164" y="-110.45"/>
      <point x="164" y="-128" type="curve" smooth="yes"/>
      <point x="164" y="-153"/>
      <point x="143.576" y="-169.99"/>
      <point x="112.766" y="-170" type="curve" smooth="yes"/>
      <point x="92.0541" y="-170.007"/>
      <point x="54.023" y="-158"/>
      <point x="43" y="-148" type="curve"/>
      <point x="30" y="-187" type="line"/>
      <point x="57.1354" y="-201"/>
      <point x="97.8384" y="-210"/>
      <point x="133.323" y="-210" type="curve" smooth="yes"/>
      <point x="214.729" y="-210"/>
      <point x="269" y="-173.763"/>
      <point x="269" y="-118.851" type="curve" smooth="yes"/>
      <point x="269" y="-73.2766"/>
      <point x="231.058" y="-42"/>
      <point x="174.931" y="-42" type="curve" smooth="yes"/>
      <point x="152.483" y="-42"/>
      <point x="130.688" y="-47.0375"/>
      <point x="114" y="-57" type="curve"/>
      <point x="120" y="-71" type="line"/>
      <point x="149" y="17" type="line"/>
      <point x="99" y="17" type="line"/>
    </contour>
  </outline>
  <guideline angle="0" x="0" y="-53"/>
  <guideline angle="0" x="0" y="-73"/>
</glyph>
<glyph name="onesuperior" format="2">
  <advance width="290"/>
  <unicode hex="00B9"/>
  <outline>
    <contour>
      <point x="234" y="336" type="line"/>
      <point x="234" y="722" type="line"/>
      <point x="144" y="722" type="line"/>
      <point x="134" y="713" type="line" smooth="yes"/>
      <point x="113.442" y="694.497"/>
      <point x="73" y="673"/>
      <point x="41" y="662" type="curve"/>
      <point x="41" y="596" type="line"/>
      <point x="76.7325" y="609.459"/>
      <point x="103.85" y="624.464"/>
      <point x="134" y="646" type="curve"/>
      <point x="134" y="336" type="line"/>
    </contour>
  </outline>
</glyph>
<glyph name="onequarter" format="2">
  <advance width="799"/>
  <unicode hex="00BC"/>
  <outline>
    <component base="onesuperior"/>
    <contour>
      <point x="650" y="736" type="line"/>
      <point x="551" y="736" type="line"/>
      <point x="125" y="-14" type="line"/>
      <point x="224" y="-14" type="line"/>
    </contour>
    <contour>
      <point x="522.646" y="135.82" type="line"/>
      <point x="628.354" y="305.18" type="line"/>
      <point x="622" y="307" type="line"/>
      <point x="622" y="0" type="line"/>
      <point x="718" y="0" type="line"/>
      <point x="718" y="386" type="line"/>
      <point x="603" y="386" type="line"/>
      <point x="444" y="154" type="line"/>
      <point x="444" y="85" type="line"/>
      <point x="762" y="85" type="line"/>
      <point x="762" y="146" type="line"/>
      <point x="517" y="146" type="line"/>
    </contour>
  </outline>
  <guideline angle="58.1472" x="523" y="122"/>
  <guideline angle="235.575" x="603" y="372"/>
  <guideline angle="0" x="0" y="722"/>
</glyph>
<glyph name="onehalf" format="2">
  <advance width="799"/>
  <unicode hex="00BD"/>
  <outline>
    <component base="onesuperior"/>
    <component base="twosuperior" xOffset="418" yOffset="-341"/>
    <contour>
      <point x="630" y="736" type="line"/>
      <point x="531" y="736" type="line"/>
      <point x="105" y="-14" type="line"/>
      <point x="204" y="-14" type="line"/>
    </contour>
  </outline>
  <guideline angle="0" x="0" y="0"/>
</glyph>
<glyph name="AE" format="2">
  <advance width="1026"/>
  <unicode hex="00C6"/>
  <anchor x="474" y="797" name="top"/>
  <outline>
    <contour>
      <point x="10" y="0" type="line"/>
      <point x="153" y="0" type="line"/>
      <point x="479.995" y="610.26" type="line"/>
      <point x="479.995" y="722" type="line"/>
      <point x="398" y="722" type="line"/>
    </contour>
    <contour>
      <point x="209" y="173" type="line"/>
      <point x="515" y="173" type="line"/>
      <point x="515" y="285" type="line"/>
      <point x="270" y="285" type="line"/>
    </contour>
    <contour>
      <point x="600" y="0.0045" type="line"/>
      <point x="957" y="0.0045" type="line"/>
      <point x="957" y="115.004" type="line"/>
      <point x="600" y="115.004" type="line"/>
    </contour>
    <contour>
      <point x="600" y="317.004" type="line"/>
      <point x="927" y="317.004" type="line"/>
      <point x="927" y="429.004" type="line"/>
      <point x="600" y="429.004" type="line"/>
    </contour>
    <contour>
      <point x="600" y="607.005" type="line"/>
      <point x="947" y="607.005" type="line"/>
      <point x="947" y="722.005" type="line"/>
      <point x="600" y="722.005" type="line"/>
    </contour>
    <contour>
      <point x="479.978" y="0" type="line"/>
      <point x="629.978" y="0" type="line"/>
      <point x="629.978" y="722" type="line"/>
      <point x="479.978" y="722" type="line"/>
    </contour>
  </outline>
</glyph>
<glyph name="ae" format="2">
  <advance width="890"/>
  <unicode hex="00E6"/>
  <outline>
    <contour>
      <point x="46" y="145.138" type="curve" smooth="yes"/>
      <point x="46" y="50.255"/>
      <point x="121.039" y="-13"/>
      <point x="233.597" y="-13" type="curve" smooth="yes"/>
      <point x="335.35" y="-13"/>
      <point x="428.327" y="42.6"/>
      <point x="466.04" y="126" type="curve"/>
      <point x="420.84" y="126.211" type="line"/>
      <point x="449.957" y="42.0845"/>
      <point x="536.57" y="-14"/>
      <point x="637.373" y="-14" type="curve" smooth="yes"/>
      <point x="746.678" y="-14"/>
      <point x="826.129" y="53.6"/>
      <point x="836" y="155" type="curve"/>
      <point x="700" y="155" type="line"/>
      <point x="694" y="106"/>
      <point x="664" y="71"/>
      <point x="620.754" y="71" type="curve" smooth="yes"/>
      <point x="552.812" y="71"/>
      <point x="510.417" y="157.389"/>
      <point x="510.417" y="286.972" type="curve" smooth="yes"/>
      <point x="510.417" y="372.189"/>
      <point x="551.351" y="429"/>
      <point x="612.615" y="429" type="curve" smooth="yes"/>
      <point x="667.501" y="429"/>
      <point x="704" y="383.4"/>
      <point x="704" y="315" type="curve"/>
      <point x="467" y="315" type="line"/>
      <point x="467" y="240" type="line"/>
      <point x="843.79" y="240" type="line"/>
      <point x="843.79" y="297.357" type="line" smooth="yes"/>
      <point x="843.79" y="427.343"/>
      <point x="758.188" y="514"/>
      <point x="632.248" y="514" type="curve" smooth="yes"/>
      <point x="549.1" y="514"/>
      <point x="475.794" y="476.227"/>
      <point x="446.521" y="419.568" type="curve"/>
      <point x="456.966" y="420.819" type="line"/>
      <point x="440.63" y="473.523"/>
      <point x="376.263" y="514"/>
      <point x="274.373" y="514" type="curve" smooth="yes"/>
      <point x="147.549" y="514"/>
      <point x="63" y="453.2"/>
      <point x="63" y="362" type="curve"/>
      <point x="199" y="362" type="line"/>
      <point x="199" y="402.091"/>
      <point x="229.162" y="428"/>
      <point x="269.91" y="428" type="curve" smooth="yes"/>
      <point x="326.524" y="428"/>
      <point x="370.838" y="388.846"/>
      <point x="370.838" y="304.131" type="curve" smooth="yes"/>
      <point x="370.838" y="252.269" type="line" smooth="yes"/>
      <point x="370.838" y="139.589"/>
      <point x="325.838" y="77"/>
      <point x="257.56" y="77" type="curve" smooth="yes"/>
      <point x="213.722" y="77"/>
      <point x="182" y="110"/>
      <point x="182" y="156.536" type="curve" smooth="yes"/>
      <point x="182" y="206"/>
      <point x="217.838" y="242"/>
      <point x="295" y="242" type="curve" smooth="yes"/>
      <point x="313.04" y="242"/>
      <point x="361.016" y="241.928"/>
      <point x="407.783" y="239.009" type="curve"/>
      <point x="407.783" y="312.53" type="line"/>
      <point x="372.285" y="315.863"/>
      <point x="293.267" y="318"/>
      <point x="269.799" y="318" type="curve" smooth="yes"/>
      <point x="135.52" y="318"/>
      <point x="46" y="248.855"/>
    </contour>
  </outline>
</glyph>
<glyph name="hbar" format="2">
  <advance width="583"/>
  <unicode hex="0127"/>
  <outline>
    <component base="h" xOffset="26"/>
    <contour>
      <point x="-31" y="630" type="line"/>
      <point x="-31" y="545" type="line"/>
      <point x="334" y="545" type="line"/>
      <point x="334" y="630" type="line"/>
    </contour>
  </outline>
</glyph>
<glyph name="kgreenlandic" format="2">
  <advance width="559"/>
  <unicode hex="0138"/>
  <outline>
    <contour>
      <point x="195" y="0" type="line"/>
      <point x="195" y="500" type="line"/>
      <point x="60" y="454" type="line"/>
      <point x="60" y="0" type="line"/>
    </contour>
    <contour>
      <point x="549" y="0" type="line"/>
      <point x="346.184" y="293.876" type="line"/>
      <point x="345.318" y="274.781" type="line"/>
      <point x="533" y="500" type="line"/>
      <point x="371" y="500" type="line"/>
      <point x="199.683" y="282.853" type="line"/>
      <point x="385" y="0" type="line"/>
    </contour>
  </outline>
  <guideline angle="198.816" x="195" y="500"/>
</glyph>
<glyph name="eng" format="2">
  <advance width="586"/>
  <unicode hex="014B"/>
  <outline>
    <component base="n"/>
    <contour>
      <point x="197.761" y="-143" type="line"/>
      <point x="232.624" y="-181"/>
      <point x="308.443" y="-200"/>
      <point x="361.646" y="-200" type="curve" smooth="yes"/>
      <point x="451.337" y="-200"/>
      <point x="526" y="-146"/>
      <point x="526" y="-62" type="curve" smooth="yes"/>
      <point x="526" y="50" type="line"/>
      <point x="391" y="50" type="line"/>
      <point x="391" y="-12" type="line" smooth="yes"/>
      <point x="391" y="-51"/>
      <point x="366.098" y="-80"/>
      <point x="325.317" y="-80" type="curve" smooth="yes"/>
      <point x="307.082" y="-80"/>
      <point x="289.264" y="-74.202"/>
      <point x="276.973" y="-60.4533" type="curve"/>
    </contour>
  </outline>
  <guideline angle="90" x="485" y="0"/>
  <guideline angle="90" x="465" y="0"/>
  <guideline angle="0" x="0" y="-200"/>
  <guideline angle="0" x="0" y="-80"/>
  <guideline angle="46.4144" x="198" y="-143"/>
</glyph>
<glyph name="oe" format="2">
  <advance width="930"/>
  <unicode hex="0153"/>
  <outline>
    <contour>
      <point x="44" y="250" type="curve" smooth="yes"/>
      <point x="44" y="94"/>
      <point x="150" y="-14"/>
      <point x="303" y="-14" type="curve" smooth="yes"/>
      <point x="455" y="-14"/>
      <point x="560" y="93"/>
      <point x="560" y="250" type="curve" smooth="yes"/>
      <point x="560" y="406"/>
      <point x="456" y="514"/>
      <point x="303" y="514" type="curve" smooth="yes"/>
      <point x="150" y="514"/>
      <point x="44" y="406"/>
    </contour>
    <contour>
      <point x="179" y="250" type="curve" smooth="yes"/>
      <point x="179" y="365"/>
      <point x="223" y="428"/>
      <point x="302" y="428" type="curve" smooth="yes"/>
      <point x="381" y="428"/>
      <point x="425" y="365"/>
      <point x="425" y="250" type="curve" smooth="yes"/>
      <point x="425" y="135"/>
      <point x="381" y="72"/>
      <point x="302" y="72" type="curve" smooth="yes"/>
      <point x="223" y="72"/>
      <point x="179" y="135"/>
    </contour>
    <contour>
      <point x="424" y="241" type="curve" smooth="yes"/>
      <point x="424" y="89"/>
      <point x="494" y="-14"/>
      <point x="664.881" y="-14" type="curve" smooth="yes"/>
      <point x="792" y="-14"/>
      <point x="868" y="43"/>
      <point x="879" y="156" type="curve"/>
      <point x="743" y="156" type="line"/>
      <point x="737" y="108"/>
      <point x="711" y="72"/>
      <point x="655" y="72" type="curve" smooth="yes"/>
      <point x="572" y="72"/>
      <point x="564" y="152"/>
      <point x="564" y="223" type="curve"/>
      <point x="886" y="223" type="line"/>
      <point x="886" y="261" type="line" smooth="yes"/>
      <point x="886" y="401"/>
      <point x="820" y="514"/>
      <point x="661" y="514" type="curve" smooth="yes"/>
      <point x="501" y="514"/>
      <point x="424" y="400"/>
    </contour>
    <contour>
      <point x="564" y="308" type="line"/>
      <point x="564" y="375"/>
      <point x="588" y="429"/>
      <point x="655" y="429" type="curve" smooth="yes"/>
      <point x="722" y="429"/>
      <point x="746" y="375"/>
      <point x="746" y="308" type="curve"/>
    </contour>
  </outline>
</glyph>
<glyph name="Tbar" format="2">
  <advance width="622"/>
  <unicode hex="0166"/>
  <outline>
    <component base="T" xOffset="20"/>
    <contour>
      <point x="107" y="306" type="line"/>
      <point x="529" y="306" type="line"/>
      <point x="529" y="406" type="line"/>
      <point x="107" y="406" type="line"/>
    </contour>
  </outline>
</glyph>
<glyph name="tbar" format="2">
  <advance width="423"/>
  <unicode hex="0167"/>
  <outline>
    <contour>
      <point x="78" y="238" type="line"/>
      <point x="317" y="238" type="line"/>
      <point x="317" y="323" type="line"/>
      <point x="78" y="323" type="line"/>
    </contour>
    <contour>
      <point x="265" y="157" type="curve" smooth="yes"/>
      <point x="265" y="647" type="line"/>
      <point x="130" y="577" type="line"/>
      <point x="130" y="119" type="line" smooth="yes"/>
      <point x="130" y="36"/>
      <point x="205" y="-14"/>
      <point x="291" y="-14" type="curve" smooth="yes"/>
      <point x="328" y="-14"/>
      <point x="362" y="-8"/>
      <point x="393" y="3" type="curve"/>
      <point x="393" y="88" type="line"/>
      <point x="378" y="82"/>
      <point x="361" y="79"/>
      <point x="343" y="79" type="curve" smooth="yes"/>
      <point x="295" y="79"/>
      <point x="265" y="107"/>
    </contour>
    <contour>
      <point x="250" y="415" type="line"/>
      <point x="250" y="500" type="line"/>
      <point x="384" y="500" type="line"/>
      <point x="384" y="415" type="line"/>
    </contour>
    <contour>
      <point x="145" y="500" type="line"/>
      <point x="145" y="415" type="line"/>
      <point x="30" y="415" type="line"/>
      <point x="30" y="500" type="line"/>
    </contour>
  </outline>
</glyph>
<glyph name="Obar" format="2">
  <advance width="776"/>
  <unicode hex="019F"/>
  <anchor x="382" y="797" name="top"/>
  <outline>
    <component base="O"/>
    <contour>
      <point x="94" y="302" type="line"/>
      <point x="663" y="302" type="line"/>
      <point x="663" y="416" type="line"/>
      <point x="94" y="416" type="line"/>
    </contour>
  </outline>
</glyph>
<glyph name="uni01C2" format="2">
  <advance width="492"/>
  <unicode hex="01C2"/>
  <outline>
    <contour>
      <point x="169.5" y="0" type="line"/>
      <point x="319.5" y="0" type="line"/>
      <point x="319.5" y="736" type="line"/>
      <point x="169.5" y="736" type="line"/>
    </contour>
    <contour>
      <point x="19" y="523.5" type="line"/>
      <point x="19" y="403.5" type="line"/>
      <point x="469" y="403.5" type="line"/>
      <point x="469" y="523.5" type="line"/>
    </contour>
    <contour>
      <point x="19" y="332.5" type="line"/>
      <point x="19" y="212.5" type="line"/>
      <point x="469" y="212.5" type="line"/>
      <point x="469" y="332.5" type="line"/>
    </contour>
  </outline>
</glyph>
<glyph name="uni01DD" format="2">
  <advance width="550"/>
  <unicode hex="01DD"/>
  <anchor x="275" y="-100" name="top"/>
  <anchor x="275" y="589" name="bottom"/>
  <outline>
    <contour>
      <point x="506" y="259" type="curve" smooth="yes"/>
      <point x="506" y="411"/>
      <point x="436" y="514"/>
      <point x="265.119" y="514" type="curve" smooth="yes"/>
      <point x="138" y="514"/>
      <point x="62" y="457"/>
      <point x="51" y="344" type="curve"/>
      <point x="187" y="344" type="line"/>
      <point x="193" y="392"/>
      <point x="219" y="428"/>
      <point x="275" y="428" type="curve" smooth="yes"/>
      <point x="358" y="428"/>
      <point x="366" y="348"/>
      <point x="366" y="277" type="curve"/>
      <point x="44" y="277" type="line"/>
      <point x="44" y="239" type="line" smooth="yes"/>
      <point x="44" y="99"/>
      <point x="110" y="-14"/>
      <point x="269" y="-14" type="curve" smooth="yes"/>
      <point x="429" y="-14"/>
      <point x="506" y="100"/>
    </contour>
    <contour>
      <point x="366" y="192" type="line"/>
      <point x="366" y="125"/>
      <point x="342" y="71"/>
      <point x="275" y="71" type="curve" smooth="yes"/>
      <point x="208" y="71"/>
      <point x="184" y="125"/>
      <point x="184" y="192" type="curve"/>
    </contour>
  </outline>
</glyph>
<glyph name="dotlessj" format="2">
  <advance width="276"/>
  <unicode hex="0237"/>
  <outline>
    <contour>
      <point x="30" y="-212" type="line"/>
      <point x="53" y="-212" type="line" smooth="yes"/>
      <point x="149" y="-212"/>
      <point x="217" y="-180"/>
      <point x="217" y="-80" type="curve" smooth="yes"/>
      <point x="217" y="500" type="line"/>
      <point x="82" y="500" type="line"/>
      <point x="82" y="-50" type="line" smooth="yes"/>
      <point x="82" y="-76"/>
      <point x="73" y="-103"/>
      <point x="42" y="-103" type="curve" smooth="yes"/>
      <point x="30" y="-103" type="line"/>
    </contour>
  </outline>
</glyph>
<glyph name="uni0257" format="2">
  <advance width="580"/>
  <unicode hex="0257"/>
  <outline>
    <contour>
      <point x="294.881" y="74" type="curve" smooth="yes"/>
      <point x="216.209" y="74"/>
      <point x="179" y="152.534"/>
      <point x="179" y="258.918" type="curve" smooth="yes"/>
      <point x="179" y="347.223"/>
      <point x="222.931" y="426"/>
      <point x="291.355" y="426" type="curve" smooth="yes"/>
      <point x="365.002" y="426"/>
      <point x="408" y="334.734"/>
      <point x="408" y="238.761" type="curve" smooth="yes"/>
      <point x="408" y="153.401"/>
      <point x="373.986" y="74"/>
    </contour>
    <contour>
      <point x="547" y="0.2857" type="line"/>
      <point x="547" y="500" type="line"/>
      <point x="412" y="500" type="line"/>
      <point x="412" y="437" type="line"/>
      <point x="373.551" y="488.839"/>
      <point x="326.683" y="512"/>
      <point x="270.231" y="512" type="curve" smooth="yes"/>
      <point x="110.953" y="512"/>
      <point x="44" y="418.437"/>
      <point x="44" y="248.011" type="curve" smooth="yes"/>
      <point x="44" y="103.564"/>
      <point x="118.787" y="-12"/>
      <point x="262.474" y="-12" type="curve" smooth="yes"/>
      <point x="325.531" y="-12"/>
      <point x="379.426" y="23.6763"/>
      <point x="412" y="76.983" type="curve"/>
      <point x="412" y="0.285702" type="line"/>
    </contour>
    <contour>
      <point x="412" y="380" type="line"/>
      <point x="547" y="380" type="line"/>
      <point x="547" y="505.724" type="line" smooth="yes"/>
      <point x="547" y="591.108"/>
      <point x="569.695" y="628"/>
      <point x="637.044" y="628" type="curve" smooth="yes"/>
      <point x="670" y="628"/>
      <point x="702.799" y="618.108"/>
      <point x="722.867" y="601.748" type="curve"/>
      <point x="793" y="673" type="line"/>
      <point x="750.049" y="710.478"/>
      <point x="706.139" y="732"/>
      <point x="607" y="732" type="curve" smooth="yes"/>
      <point x="493.653" y="732"/>
      <point x="412" y="653.789"/>
      <point x="412" y="545" type="curve" smooth="yes"/>
    </contour>
  </outline>
</glyph>
<glyph name="uni025A" format="2">
  <advance width="766"/>
  <unicode hex="025A"/>
  <anchor x="275" y="-100" name="top"/>
  <anchor x="275" y="589" name="bottom"/>
  <outline>
    <contour>
      <point x="506" y="259" type="curve" smooth="yes"/>
      <point x="506" y="411"/>
      <point x="436" y="514"/>
      <point x="265.119" y="514" type="curve" smooth="yes"/>
      <point x="138" y="514"/>
      <point x="62" y="457"/>
      <point x="51" y="344" type="curve"/>
      <point x="187" y="344" type="line"/>
      <point x="193" y="392"/>
      <point x="219" y="428"/>
      <point x="275" y="428" type="curve" smooth="yes"/>
      <point x="360.187" y="428"/>
      <point x="368.364" y="337.89"/>
      <point x="368.364" y="224.024" type="curve" smooth="yes"/>
      <point x="368.364" y="119.84"/>
      <point x="336.653" y="71"/>
      <point x="269.221" y="71" type="curve" smooth="yes"/>
      <point x="202.221" y="71"/>
      <point x="162.475" y="114.157"/>
      <point x="149.873" y="232.42" type="curve"/>
      <point x="47.4562" y="185.581" type="line"/>
      <point x="47.4562" y="91.598"/>
      <point x="110" y="-14"/>
      <point x="269" y="-14" type="curve" smooth="yes"/>
      <point x="429" y="-14"/>
      <point x="506" y="100"/>
    </contour>
    <contour>
      <point x="114.909" y="124.803" type="line"/>
      <point x="538.929" y="317.975" type="line"/>
      <point x="528.009" y="317.686" type="line"/>
      <point x="528.009" y="301.284" type="line" smooth="yes"/>
      <point x="528.009" y="216.645"/>
      <point x="593.234" y="186.061"/>
      <point x="660.214" y="186.061" type="curve" smooth="yes"/>
      <point x="737.723" y="186.061"/>
      <point x="765" y="256.535"/>
      <point x="765" y="320" type="curve"/>
      <point x="699.545" y="320" type="line"/>
      <point x="699.545" y="291.377"/>
      <point x="696.071" y="267.954"/>
      <point x="668" y="267.867" type="curve" smooth="yes"/>
      <point x="640.251" y="267.782"/>
      <point x="630" y="279.848"/>
      <point x="630" y="303" type="curve" smooth="yes"/>
      <point x="630" y="452" type="line"/>
      <point x="80.5749" y="200.727" type="line"/>
    </contour>
  </outline>
  <guideline angle="204.576" x="630" y="452"/>
  <guideline angle="24.4919" x="179" y="154"/>
</glyph>
<glyph name="uni0260" format="2">
  <advance width="621"/>
  <unicode hex="0260"/>
  <outline>
    <component base="g"/>
    <contour>
      <point x="411" y="400" type="line"/>
      <point x="546" y="400" type="line"/>
      <point x="546" y="500" type="line" smooth="yes"/>
      <point x="546" y="535.124"/>
      <point x="562.645" y="551.59"/>
      <point x="590.826" y="552.009" type="curve" smooth="yes"/>
      <point x="605.998" y="552.235"/>
      <point x="622" y="547.771"/>
      <point x="637" y="538.271" type="curve"/>
      <point x="637" y="633.341" type="line"/>
      <point x="622" y="643.114"/>
      <point x="585.004" y="648"/>
      <point x="558.06" y="648" type="curve" smooth="yes"/>
      <point x="466.398" y="648"/>
      <point x="411" y="591.449"/>
      <point x="411" y="500" type="curve" smooth="yes"/>
    </contour>
  </outline>
</glyph>
<glyph name="uni0266" format="2">
  <advance width="573"/>
  <unicode hex="0266"/>
  <outline>
    <contour>
      <point x="60" y="380" type="line"/>
      <point x="196" y="380" type="line"/>
      <point x="196" y="505.724" type="line" smooth="yes"/>
      <point x="196" y="591.108"/>
      <point x="217.695" y="628"/>
      <point x="285.044" y="628" type="curve" smooth="yes"/>
      <point x="318" y="628"/>
      <point x="350.799" y="618.108"/>
      <point x="370.867" y="601.748" type="curve"/>
      <point x="441" y="673" type="line"/>
      <point x="398.049" y="710.478"/>
      <point x="354.139" y="732"/>
      <point x="255" y="732" type="curve" smooth="yes"/>
      <point x="141.653" y="732"/>
      <point x="60" y="653.789"/>
      <point x="60" y="545" type="curve" smooth="yes"/>
    </contour>
    <contour>
      <point x="176" y="279" type="line"/>
      <point x="196" y="279" type="line"/>
      <point x="196" y="377"/>
      <point x="234" y="432"/>
      <point x="302" y="432" type="curve" smooth="yes"/>
      <point x="361" y="432"/>
      <point x="391" y="390.145"/>
      <point x="391" y="307" type="curve" smooth="yes"/>
      <point x="391" y="0" type="line"/>
      <point x="527" y="0" type="line"/>
      <point x="527" y="334" type="line" smooth="yes"/>
      <point x="527" y="450"/>
      <point x="465" y="514"/>
      <point x="356" y="514" type="curve" smooth="yes"/>
      <point x="286" y="514"/>
      <point x="237" y="488"/>
      <point x="198" y="433" type="curve"/>
      <point x="176" y="433" type="line"/>
    </contour>
    <contour>
      <point x="196" y="0" type="line"/>
      <point x="196" y="500" type="line"/>
      <point x="60" y="500" type="line"/>
      <point x="60" y="0" type="line"/>
    </contour>
  </outline>
</glyph>
<glyph name="uni0267" format="2">
  <advance width="574"/>
  <unicode hex="0267"/>
  <outline>
    <contour>
      <point x="527" y="134" type="line"/>
      <point x="391" y="134" type="line"/>
      <point x="391" y="-21" type="line" smooth="yes"/>
      <point x="391" y="-63"/>
      <point x="364" y="-89"/>
      <point x="330" y="-89" type="curve" smooth="yes"/>
      <point x="301" y="-89"/>
      <point x="284.868" y="-78.279"/>
      <point x="273.698" y="-66.1515" type="curve"/>
      <point x="198" y="-142" type="line"/>
      <point x="233" y="-180"/>
      <point x="279" y="-199"/>
      <point x="336" y="-199" type="curve" smooth="yes"/>
      <point x="444.587" y="-199"/>
      <point x="527" y="-140.291"/>
      <point x="527" y="-60" type="curve" smooth="yes"/>
    </contour>
    <contour>
      <point x="60" y="380" type="line"/>
      <point x="196" y="380" type="line"/>
      <point x="196" y="505.724" type="line" smooth="yes"/>
      <point x="196" y="591.108"/>
      <point x="217.695" y="628"/>
      <point x="285.044" y="628" type="curve" smooth="yes"/>
      <point x="318" y="628"/>
      <point x="350.799" y="618.108"/>
      <point x="370.867" y="601.748" type="curve"/>
      <point x="441" y="673" type="line"/>
      <point x="398.049" y="710.478"/>
      <point x="354.139" y="732"/>
      <point x="255" y="732" type="curve" smooth="yes"/>
      <point x="141.653" y="732"/>
      <point x="60" y="653.789"/>
      <point x="60" y="545" type="curve" smooth="yes"/>
    </contour>
    <contour>
      <point x="176" y="279" type="line"/>
      <point x="196" y="279" type="line"/>
      <point x="196" y="377"/>
      <point x="234" y="432"/>
      <point x="302" y="432" type="curve" smooth="yes"/>
      <point x="361" y="432"/>
      <point x="391" y="390.145"/>
      <point x="391" y="307" type="curve" smooth="yes"/>
      <point x="391" y="0" type="line"/>
      <point x="527" y="0" type="line"/>
      <point x="527" y="334" type="line" smooth="yes"/>
      <point x="527" y="450"/>
      <point x="465" y="514"/>
      <point x="356" y="514" type="curve" smooth="yes"/>
      <point x="286" y="514"/>
      <point x="237" y="488"/>
      <point x="198" y="433" type="curve"/>
      <point x="176" y="433" type="line"/>
    </contour>
    <contour>
      <point x="196" y="0" type="line"/>
      <point x="196" y="500" type="line"/>
      <point x="60" y="500" type="line"/>
      <point x="60" y="0" type="line"/>
    </contour>
  </outline>
  <guideline angle="90" x="60" y="0"/>
  <guideline angle="90" x="195" y="0"/>
</glyph>
<glyph name="uni026D" format="2">
  <advance width="282"/>
  <unicode hex="026D"/>
  <outline>
    <component base="l"/>
    <contour>
      <point x="317" y="-105" type="line"/>
      <point x="275" y="-105" type="line" smooth="yes"/>
      <point x="214" y="-105"/>
      <point x="196" y="-83"/>
      <point x="196" y="-19" type="curve" smooth="yes"/>
      <point x="196" y="50" type="line"/>
      <point x="60" y="50" type="line"/>
      <point x="60" y="-30" type="line" smooth="yes"/>
      <point x="60" y="-145"/>
      <point x="114" y="-200"/>
      <point x="230" y="-200" type="curve" smooth="yes"/>
      <point x="317" y="-200" type="line"/>
    </contour>
  </outline>
</glyph>
<glyph name="uni0270" format="2">
  <advance width="875"/>
  <unicode hex="0270"/>
  <outline>
    <contour>
      <point x="679" y="-200" type="line"/>
      <point x="815" y="-200" type="line"/>
      <point x="815" y="0" type="line"/>
      <point x="679" y="0" type="line"/>
    </contour>
    <contour>
      <point x="505" y="180" type="curve" smooth="yes"/>
      <point x="505" y="500" type="line"/>
      <point x="369" y="500" type="line"/>
      <point x="369" y="221" type="line" smooth="yes"/>
      <point x="369" y="113.924"/>
      <point x="321" y="82"/>
      <point x="265" y="82" type="curve" smooth="yes"/>
      <point x="221" y="82"/>
      <point x="195" y="111"/>
      <point x="195" y="180" type="curve" smooth="yes"/>
      <point x="195" y="500" type="line"/>
      <point x="59" y="500" type="line"/>
      <point x="59" y="170" type="line" smooth="yes"/>
      <point x="59" y="52"/>
      <point x="123" y="-14"/>
      <point x="238.071" y="-14" type="curve" smooth="yes"/>
      <point x="300.892" y="-14"/>
      <point x="353.36" y="17.4767"/>
      <point x="386.424" y="75" type="curve"/>
      <point x="407.175" y="26.878"/>
      <point x="462.361" y="-14"/>
      <point x="536.361" y="-14" type="curve" smooth="yes"/>
      <point x="606.216" y="-14"/>
      <point x="665.565" y="29.163"/>
      <point x="689" y="97" type="curve"/>
      <point x="689" y="220.964" type="line"/>
      <point x="679" y="221" type="line"/>
      <point x="679" y="147.436"/>
      <point x="645.452" y="82"/>
      <point x="577.751" y="82" type="curve" smooth="yes"/>
      <point x="531" y="82"/>
      <point x="505" y="119"/>
    </contour>
    <contour>
      <point x="679" y="140" type="line"/>
      <point x="679" y="0" type="line"/>
      <point x="815" y="0" type="line"/>
      <point x="815" y="140" type="line"/>
    </contour>
    <contour>
      <point x="815" y="140" type="line"/>
      <point x="815" y="500" type="line"/>
      <point x="679" y="500" type="line"/>
      <point x="679" y="139.709" type="line"/>
    </contour>
  </outline>
</glyph>
<glyph name="uni0272" format="2">
  <advance width="619"/>
  <unicode hex="0272"/>
  <outline>
    <component base="n"/>
    <contour>
      <point x="-61" y="-105" type="line"/>
      <point x="-61" y="-200" type="line"/>
      <point x="26" y="-200" type="line" smooth="yes"/>
      <point x="142" y="-200"/>
      <point x="196" y="-145"/>
      <point x="196" y="-30" type="curve" smooth="yes"/>
      <point x="196" y="50" type="line"/>
      <point x="60" y="50" type="line"/>
      <point x="60" y="-19" type="line" smooth="yes"/>
      <point x="60" y="-83"/>
      <point x="42" y="-105"/>
      <point x="-19" y="-105" type="curve" smooth="yes"/>
    </contour>
  </outline>
</glyph>
<glyph name="uni0273" format="2">
  <advance width="620"/>
  <unicode hex="0273"/>
  <outline>
    <contour>
      <point x="648" y="-105" type="line"/>
      <point x="606" y="-105" type="line" smooth="yes"/>
      <point x="545" y="-105"/>
      <point x="527" y="-83"/>
      <point x="527" y="-19" type="curve" smooth="yes"/>
      <point x="527" y="50" type="line"/>
      <point x="391" y="50" type="line"/>
      <point x="391" y="-30" type="line" smooth="yes"/>
      <point x="391" y="-145"/>
      <point x="445" y="-200"/>
      <point x="561" y="-200" type="curve" smooth="yes"/>
      <point x="648" y="-200" type="line"/>
    </contour>
    <contour>
      <point x="176" y="279" type="line"/>
      <point x="196" y="279" type="line"/>
      <point x="196" y="377"/>
      <point x="234" y="432"/>
      <point x="302" y="432" type="curve" smooth="yes"/>
      <point x="361" y="432"/>
      <point x="391" y="390.145"/>
      <point x="391" y="307" type="curve" smooth="yes"/>
      <point x="391" y="0" type="line"/>
      <point x="527" y="0" type="line"/>
      <point x="527" y="334" type="line" smooth="yes"/>
      <point x="527" y="450"/>
      <point x="465" y="514"/>
      <point x="356" y="514" type="curve" smooth="yes"/>
      <point x="286" y="514"/>
      <point x="237" y="488"/>
      <point x="198" y="433" type="curve"/>
      <point x="176" y="433" type="line"/>
    </contour>
    <contour>
      <point x="196" y="0" type="line"/>
      <point x="196" y="500" type="line"/>
      <point x="60" y="500" type="line"/>
      <point x="60" y="0" type="line"/>
    </contour>
  </outline>
</glyph>
<glyph name="uni027C" format="2">
  <advance width="363"/>
  <unicode hex="027C"/>
  <outline>
    <contour>
      <point x="195" y="-200" type="line"/>
      <point x="195" y="0" type="line"/>
      <point x="60" y="0" type="line"/>
      <point x="60" y="-200" type="line"/>
    </contour>
    <contour>
      <point x="195" y="422.209" type="curve" smooth="yes"/>
      <point x="175" y="385.21" type="line"/>
      <point x="175" y="254.974" type="line"/>
      <point x="195" y="255" type="line"/>
      <point x="195" y="353"/>
      <point x="264" y="398"/>
      <point x="366" y="398" type="curve"/>
      <point x="366" y="514" type="line"/>
      <point x="283.41" y="514"/>
      <point x="228.524" y="484.413"/>
    </contour>
    <contour>
      <point x="196" y="0" type="line"/>
      <point x="196" y="500" type="line"/>
      <point x="60" y="500" type="line"/>
      <point x="60" y="0" type="line"/>
    </contour>
  </outline>
</glyph>
<glyph name="uni027E" format="2">
  <advance width="452"/>
  <unicode hex="027E"/>
  <outline>
    <contour>
      <point x="60" y="0" type="line"/>
      <point x="196" y="0" type="line"/>
      <point x="196" y="322" type="line" smooth="yes"/>
      <point x="196" y="377"/>
      <point x="228" y="410"/>
      <point x="264" y="410" type="curve" smooth="yes"/>
      <point x="299.669" y="410"/>
      <point x="324.523" y="398.333"/>
      <point x="339" y="381" type="curve"/>
      <point x="407.822" y="455.284" type="line"/>
      <point x="383.263" y="488.902"/>
      <point x="317.095" y="514"/>
      <point x="255" y="514" type="curve" smooth="yes"/>
      <point x="123" y="514"/>
      <point x="60" y="457"/>
      <point x="60" y="322" type="curve" smooth="yes"/>
    </contour>
  </outline>
  <guideline angle="227.186" x="402" y="449"/>
</glyph>
<glyph name="uni027F" format="2">
  <advance width="461"/>
  <unicode hex="027F"/>
  <outline>
    <contour>
      <point x="266" y="-200" type="line"/>
      <point x="402" y="-200" type="line"/>
      <point x="402" y="322" type="line" smooth="yes"/>
      <point x="402" y="457"/>
      <point x="339" y="514"/>
      <point x="207" y="514" type="curve" smooth="yes"/>
      <point x="144.905" y="514"/>
      <point x="78.7366" y="488.902"/>
      <point x="54.1776" y="455.284" type="curve"/>
      <point x="123" y="381" type="line"/>
      <point x="137.477" y="398.333"/>
      <point x="162.331" y="410"/>
      <point x="198" y="410" type="curve" smooth="yes"/>
      <point x="234" y="410"/>
      <point x="266" y="377"/>
      <point x="266" y="322" type="curve" smooth="yes"/>
    </contour>
  </outline>
</glyph>
<glyph name="uni028B" format="2">
  <advance width="580"/>
  <unicode hex="028B"/>
  <outline>
    <contour>
      <point x="272" y="-12" type="curve" smooth="yes"/>
      <point x="431.427" y="-12"/>
      <point x="545" y="91.1118"/>
      <point x="545" y="250" type="curve" smooth="yes"/>
      <point x="545" y="356"/>
      <point x="502" y="474"/>
      <point x="453" y="516" type="curve"/>
      <point x="330" y="458" type="line"/>
      <point x="385" y="376"/>
      <point x="413" y="288"/>
      <point x="413" y="193" type="curve" smooth="yes"/>
      <point x="413" y="110.485"/>
      <point x="370.643" y="70"/>
      <point x="297.718" y="70" type="curve" smooth="yes"/>
      <point x="227" y="70"/>
      <point x="190" y="105"/>
      <point x="190" y="171" type="curve" smooth="yes"/>
      <point x="190" y="500" type="line"/>
      <point x="55" y="500" type="line"/>
      <point x="55" y="175" type="line" smooth="yes"/>
      <point x="55" y="56"/>
      <point x="141" y="-12"/>
    </contour>
  </outline>
</glyph>
<glyph name="uni0292" format="2">
  <advance width="511"/>
  <unicode hex="0292"/>
  <anchor x="250" y="600" name="top"/>
  <outline>
    <contour>
      <point x="482" y="28.6479" type="curve" smooth="yes"/>
      <point x="482" y="134.122"/>
      <point x="415.405" y="207.159"/>
      <point x="284.127" y="245.542" type="curve"/>
      <point x="291.085" y="231.862" type="line"/>
      <point x="450.307" y="418.936" type="line"/>
      <point x="450.307" y="500" type="line"/>
      <point x="50.3146" y="500" type="line"/>
      <point x="50.3146" y="415" type="line"/>
      <point x="311.282" y="415" type="line"/>
      <point x="307.085" y="424.117" type="line"/>
      <point x="135.817" y="224" type="line"/>
      <point x="135.817" y="187" type="line"/>
      <point x="283.246" y="187"/>
      <point x="347" y="138.698"/>
      <point x="347" y="27" type="curve" smooth="yes"/>
      <point x="347" y="-37.6344"/>
      <point x="301.526" y="-95"/>
      <point x="250.29" y="-95" type="curve" smooth="yes"/>
      <point x="183.745" y="-95"/>
      <point x="142" y="-70.714"/>
      <point x="142" y="-32" type="curve"/>
      <point x="22" y="-32" type="line"/>
      <point x="22" y="-138.864"/>
      <point x="104.976" y="-200"/>
      <point x="250.015" y="-200" type="curve" smooth="yes"/>
      <point x="381.64" y="-200"/>
      <point x="482" y="-101.083"/>
    </contour>
  </outline>
  <guideline angle="49.4696" x="136" y="224"/>
  <guideline angle="229.692" x="450" y="419"/>
</glyph>
<glyph name="uni02A0" format="2">
  <advance width="630"/>
  <unicode hex="02A0"/>
  <outline>
    <contour>
      <point x="412.373" y="344.324" type="line"/>
      <point x="547.373" y="344.324" type="line"/>
      <point x="547.373" y="444.324" type="line" smooth="yes"/>
      <point x="547.373" y="479.448"/>
      <point x="564.015" y="496.333"/>
      <point x="592.199" y="496.333" type="curve" smooth="yes"/>
      <point x="607.39" y="496.333"/>
      <point x="623.373" y="492.095"/>
      <point x="638.373" y="482.595" type="curve"/>
      <point x="638.373" y="577.665" type="line"/>
      <point x="623.373" y="587.437"/>
      <point x="586.377" y="592.324"/>
      <point x="559.433" y="592.324" type="curve" smooth="yes"/>
      <point x="467.771" y="592.324"/>
      <point x="412.373" y="535.773"/>
      <point x="412.373" y="444.324" type="curve" smooth="yes"/>
    </contour>
    <contour>
      <point x="412" y="-200" type="line"/>
      <point x="547" y="-200" type="line"/>
      <point x="547" y="344.319" type="line"/>
      <point x="412" y="344.319" type="line"/>
    </contour>
    <contour>
      <point x="44" y="252" type="curve" smooth="yes"/>
      <point x="44" y="104"/>
      <point x="118.552" y="-14"/>
      <point x="275.414" y="-14" type="curve" smooth="yes"/>
      <point x="331.398" y="-14"/>
      <point x="397.569" y="29.2976"/>
      <point x="423.361" y="84.0467" type="curve"/>
      <point x="423.056" y="434.032" type="line"/>
      <point x="395.633" y="487.111"/>
      <point x="342.851" y="514"/>
      <point x="267.379" y="514" type="curve" smooth="yes"/>
      <point x="118.552" y="514"/>
      <point x="44" y="400"/>
    </contour>
    <contour>
      <point x="179" y="245" type="curve" smooth="yes"/>
      <point x="179" y="321"/>
      <point x="207.121" y="428"/>
      <point x="298.513" y="428" type="curve" smooth="yes"/>
      <point x="392.918" y="428"/>
      <point x="412" y="316"/>
      <point x="412" y="253" type="curve" smooth="yes"/>
      <point x="412" y="165"/>
      <point x="374.841" y="76"/>
      <point x="291.483" y="76" type="curve" smooth="yes"/>
      <point x="208.125" y="76"/>
      <point x="179" y="167"/>
    </contour>
  </outline>
</glyph>
<glyph name="hfishhookturned" format="2">
  <advance width="771"/>
  <unicode hex="02AE"/>
  <outline>
    <contour>
      <point x="575" y="0" type="line"/>
      <point x="575" y="-200" type="line"/>
      <point x="711" y="-200" type="line"/>
      <point x="711" y="0" type="line"/>
    </contour>
    <contour>
      <point x="244" y="380" type="line"/>
      <point x="380" y="380" type="line"/>
      <point x="380" y="545" type="line" smooth="yes"/>
      <point x="380" y="653.789"/>
      <point x="298.347" y="732"/>
      <point x="185" y="732" type="curve" smooth="yes"/>
      <point x="85.8609" y="732"/>
      <point x="41.9508" y="710.478"/>
      <point x="-1" y="673" type="curve"/>
      <point x="69.1332" y="601.748" type="line"/>
      <point x="89.2013" y="618.108"/>
      <point x="122" y="628"/>
      <point x="154.956" y="628" type="curve" smooth="yes"/>
      <point x="222.305" y="628"/>
      <point x="244" y="591.108"/>
      <point x="244" y="505.724" type="curve" smooth="yes"/>
    </contour>
    <contour>
      <point x="244" y="159" type="line" smooth="yes"/>
      <point x="244" y="49"/>
      <point x="306" y="-14"/>
      <point x="418.488" y="-14" type="curve" smooth="yes"/>
      <point x="489.144" y="-14"/>
      <point x="535.196" y="10.8562"/>
      <point x="575" y="68" type="curve" smooth="yes"/>
      <point x="595" y="96.7129" type="line"/>
      <point x="595" y="221.131" type="line"/>
      <point x="575" y="221" type="line"/>
      <point x="575" y="124"/>
      <point x="537" y="67"/>
      <point x="469" y="67" type="curve" smooth="yes"/>
      <point x="410" y="67"/>
      <point x="380" y="111"/>
      <point x="380" y="199" type="curve" smooth="yes"/>
      <point x="380" y="500" type="line"/>
      <point x="244" y="500" type="line"/>
    </contour>
    <contour>
      <point x="711" y="0" type="line"/>
      <point x="711" y="500" type="line"/>
      <point x="575" y="500" type="line"/>
      <point x="575" y="0" type="line"/>
    </contour>
  </outline>
</glyph>
<glyph name="uni02AF" format="2">
  <advance width="944"/>
  <unicode hex="02AF"/>
  <outline>
    <contour>
      <point x="224" y="159" type="line" smooth="yes"/>
      <point x="224" y="49"/>
      <point x="286" y="-14"/>
      <point x="398.488" y="-14" type="curve" smooth="yes"/>
      <point x="469.144" y="-14"/>
      <point x="515.196" y="10.8562"/>
      <point x="555" y="68" type="curve" smooth="yes"/>
      <point x="575" y="96.7129" type="line"/>
      <point x="575" y="221.131" type="line"/>
      <point x="555" y="221" type="line"/>
      <point x="555" y="124"/>
      <point x="517" y="67"/>
      <point x="449" y="67" type="curve" smooth="yes"/>
      <point x="390" y="67"/>
      <point x="360" y="111"/>
      <point x="360" y="199" type="curve" smooth="yes"/>
      <point x="360" y="500" type="line"/>
      <point x="224" y="500" type="line"/>
    </contour>
    <contour>
      <point x="224" y="380" type="line"/>
      <point x="360" y="380" type="line"/>
      <point x="360" y="545" type="line" smooth="yes"/>
      <point x="360" y="653.789"/>
      <point x="278.347" y="732"/>
      <point x="165" y="732" type="curve" smooth="yes"/>
      <point x="65.8609" y="732"/>
      <point x="21.9508" y="710.478"/>
      <point x="-21" y="673" type="curve"/>
      <point x="49.1332" y="601.748" type="line"/>
      <point x="69.2013" y="618.108"/>
      <point x="102" y="628"/>
      <point x="134.956" y="628" type="curve" smooth="yes"/>
      <point x="202.305" y="628"/>
      <point x="224" y="591.108"/>
      <point x="224" y="505.724" type="curve" smooth="yes"/>
    </contour>
    <contour>
      <point x="691" y="0" type="line"/>
      <point x="691" y="500" type="line"/>
      <point x="555" y="500" type="line"/>
      <point x="555" y="0" type="line"/>
    </contour>
    <contour>
      <point x="555" y="134" type="line"/>
      <point x="555" y="-60" type="line" smooth="yes"/>
      <point x="555" y="-140.291"/>
      <point x="637.413" y="-199"/>
      <point x="746" y="-199" type="curve" smooth="yes"/>
      <point x="803" y="-199"/>
      <point x="849" y="-180"/>
      <point x="884" y="-142" type="curve"/>
      <point x="808.302" y="-66.1515" type="line"/>
      <point x="797.132" y="-78.279"/>
      <point x="781" y="-89"/>
      <point x="752" y="-89" type="curve" smooth="yes"/>
      <point x="718" y="-89"/>
      <point x="691" y="-63"/>
      <point x="691" y="-21" type="curve" smooth="yes"/>
      <point x="691" y="134" type="line"/>
    </contour>
  </outline>
</glyph>
<glyph name="uni02B0" format="2">
  <advance width="446"/>
  <unicode hex="02B0"/>
  <outline>
    <contour>
      <point x="60.4969" y="350.445" type="line"/>
      <point x="155" y="350.445" type="line"/>
      <point x="155" y="552.75" type="line" smooth="yes"/>
      <point x="155" y="618.545"/>
      <point x="185.801" y="653.552"/>
      <point x="229.202" y="653.552" type="curve" smooth="yes"/>
      <point x="271.203" y="653.552"/>
      <point x="292.203" y="622.751"/>
      <point x="292.203" y="560.45" type="curve" smooth="yes"/>
      <point x="292.203" y="350.445" type="line"/>
      <point x="386.705" y="350.445" type="line"/>
      <point x="386.705" y="588.45" type="line" smooth="yes"/>
      <point x="386.705" y="663.352"/>
      <point x="346.105" y="710.253"/>
      <point x="269.103" y="710.253" type="curve" smooth="yes"/>
      <point x="211.595" y="710.253"/>
      <point x="180.156" y="701.149"/>
      <point x="155" y="660.552" type="curve"/>
      <point x="155" y="855.857" type="line"/>
      <point x="60.4969" y="855.857" type="line"/>
    </contour>
  </outline>
</glyph>
<glyph name="circumflex" format="2">
  <advance width="340"/>
  <unicode hex="02C6"/>
  <outline>
    <contour>
      <point x="0" y="580" type="line"/>
      <point x="120" y="580" type="line"/>
      <point x="202" y="680" type="line"/>
      <point x="138" y="680" type="line"/>
      <point x="220" y="580" type="line"/>
      <point x="340" y="580" type="line"/>
      <point x="240" y="730" type="line"/>
      <point x="100" y="730" type="line"/>
    </contour>
  </outline>
  <guideline angle="90" x="170" y="0"/>
</glyph>
<glyph name="uni02D1" format="2">
  <advance width="372"/>
  <unicode hex="02D1"/>
  <outline>
    <contour>
      <point x="280.63" y="500" type="line"/>
      <point x="90.37" y="500" type="line"/>
      <point x="153.37" y="284.54" type="line"/>
      <point x="218.89" y="284.54" type="line"/>
    </contour>
  </outline>
</glyph>
<glyph name="breve" format="2">
  <advance width="400"/>
  <unicode hex="02D8"/>
  <outline>
    <contour>
      <point x="200" y="580" type="curve" smooth="yes"/>
      <point x="298" y="580"/>
      <point x="350" y="640"/>
      <point x="360" y="730" type="curve"/>
      <point x="270" y="730" type="line"/>
      <point x="266" y="688"/>
      <point x="237" y="660"/>
      <point x="200" y="660" type="curve" smooth="yes"/>
      <point x="163" y="660"/>
      <point x="134" y="688"/>
      <point x="130" y="730" type="curve"/>
      <point x="40" y="730" type="line"/>
      <point x="50" y="640"/>
      <point x="102" y="580"/>
    </contour>
  </outline>
  <guideline angle="90" x="200" y="0"/>
</glyph>
<glyph name="ring" format="2">
  <advance width="340"/>
  <unicode hex="02DA"/>
  <outline>
    <contour>
      <point x="170" y="860" type="curve" smooth="yes"/>
      <point x="87.8588" y="860"/>
      <point x="30" y="802.141"/>
      <point x="30" y="720" type="curve" smooth="yes"/>
      <point x="30" y="639.025"/>
      <point x="87.9523" y="580"/>
      <point x="170" y="580" type="curve" smooth="yes"/>
      <point x="250.975" y="580"/>
      <point x="310" y="639.025"/>
      <point x="310" y="720" type="curve" smooth="yes"/>
      <point x="310" y="802.048"/>
      <point x="250.975" y="860"/>
    </contour>
    <contour>
      <point x="170" y="674" type="curve" smooth="yes"/>
      <point x="143.621" y="674"/>
      <point x="124" y="693.621"/>
      <point x="124" y="720" type="curve" smooth="yes"/>
      <point x="124" y="745.613"/>
      <point x="144.387" y="766"/>
      <point x="170" y="766" type="curve" smooth="yes"/>
      <point x="196.379" y="766"/>
      <point x="216" y="746.379"/>
      <point x="216" y="720" type="curve" smooth="yes"/>
      <point x="216" y="694.387"/>
      <point x="195.613" y="674"/>
    </contour>
  </outline>
</glyph>
<glyph name="ogonek" format="2">
  <advance width="271"/>
  <unicode hex="02DB"/>
  <outline>
    <contour>
      <point x="40" y="-124" type="curve" smooth="yes"/>
      <point x="40" y="-171"/>
      <point x="72" y="-210"/>
      <point x="128" y="-210" type="curve" smooth="yes"/>
      <point x="161.718" y="-210"/>
      <point x="202.415" y="-196.686"/>
      <point x="230.116" y="-174.501" type="curve"/>
      <point x="202.365" y="-113.255" type="line"/>
      <point x="195.466" y="-117.305"/>
      <point x="181.609" y="-120"/>
      <point x="167.268" y="-120" type="curve" smooth="yes"/>
      <point x="135.939" y="-120"/>
      <point x="120" y="-108"/>
      <point x="120" y="-79" type="curve" smooth="yes"/>
      <point x="120" y="-48"/>
      <point x="138" y="-16.9412"/>
      <point x="168" y="0" type="curve"/>
      <point x="120" y="0" type="line"/>
      <point x="72" y="-39.6604"/>
      <point x="40" y="-89.2604"/>
    </contour>
  </outline>
</glyph>
<glyph name="tilde" format="2">
  <advance width="320"/>
  <unicode hex="02DC"/>
  <outline>
    <contour>
      <point x="0" y="600" type="curve"/>
      <point x="82" y="600" type="line"/>
      <point x="85" y="613"/>
      <point x="97.5334" y="621"/>
      <point x="114" y="621" type="curve" smooth="yes"/>
      <point x="144" y="621"/>
      <point x="185.971" y="596"/>
      <point x="226" y="596" type="curve" smooth="yes"/>
      <point x="279" y="596"/>
      <point x="313.65" y="638"/>
      <point x="320" y="701" type="curve"/>
      <point x="238" y="701" type="line"/>
      <point x="232" y="689"/>
      <point x="220.124" y="682"/>
      <point x="204" y="682" type="curve" smooth="yes"/>
      <point x="173" y="682"/>
      <point x="132.816" y="707"/>
      <point x="92.8415" y="707" type="curve" smooth="yes"/>
      <point x="41" y="707"/>
      <point x="6" y="665"/>
    </contour>
  </outline>
  <guideline angle="90" x="160" y="0"/>
  <guideline angle="0" x="0" y="680"/>
  <guideline angle="0" x="0" y="580"/>
  <guideline angle="0" x="0" y="600"/>
</glyph>
<glyph name="uni02E4" format="2">
  <advance width="489"/>
  <unicode hex="02E4"/>
  <outline>
    <contour>
      <point x="309" y="615" type="curve"/>
      <point x="309" y="688" type="line"/>
      <point x="278.848" y="694.519"/>
      <point x="226.338" y="700"/>
      <point x="196.294" y="700" type="curve" smooth="yes"/>
      <point x="102.974" y="700"/>
      <point x="41" y="647.125"/>
      <point x="41" y="569.438" type="curve" smooth="yes"/>
      <point x="41" y="504.982"/>
      <point x="83.4384" y="460.267"/>
      <point x="161" y="443" type="curve"/>
      <point x="161" y="185" type="line"/>
      <point x="268" y="185" type="line"/>
      <point x="268" y="503" type="line"/>
      <point x="183.373" y="509.77"/>
      <point x="151" y="527.503"/>
      <point x="151" y="567.09" type="curve" smooth="yes"/>
      <point x="151" y="604.728"/>
      <point x="181.107" y="626"/>
      <point x="234.376" y="626" type="curve" smooth="yes"/>
      <point x="257.432" y="626"/>
      <point x="283.369" y="622.177"/>
    </contour>
  </outline>
</glyph>
<glyph name="uni0305" format="2">
  <unicode hex="0305"/>
  <anchor x="-205" y="525" name="_top"/>
  <outline>
    <contour>
      <point x="-74" y="600" type="line"/>
      <point x="-174" y="771" type="line"/>
      <point x="-335" y="771" type="line"/>
      <point x="-165" y="600" type="line"/>
    </contour>
  </outline>
</glyph>
<glyph name="uni0307" format="2">
  <unicode hex="0307"/>
  <anchor x="0" y="580" name="_top"/>
  <anchor x="0" y="800" name="t.mkmk"/>
  <outline>
    <contour>
      <point x="-75" y="600" type="line"/>
      <point x="75" y="600" type="line"/>
      <point x="75" y="730" type="line"/>
      <point x="-75" y="730" type="line"/>
    </contour>
  </outline>
  <guideline angle="90" x="-75" y="0"/>
  <guideline angle="90" x="75" y="0"/>
</glyph>
<glyph name="uni0309" format="2">
  <unicode hex="0309"/>
  <anchor x="0" y="530" name="_top"/>
  <outline>
    <contour>
      <point x="121.35" y="656.64" type="curve" smooth="yes"/>
      <point x="121.35" y="718.541"/>
      <point x="72.9587" y="759.807"/>
      <point x="0.371082" y="759.807" type="curve" smooth="yes"/>
      <point x="-63.2563" y="759.807"/>
      <point x="-111.648" y="730.494"/>
      <point x="-121.35" y="664.194" type="curve"/>
      <point x="-31.1634" y="664.194" type="line"/>
      <point x="-29.41" y="686.077"/>
      <point x="-17.5785" y="700.666"/>
      <point x="-1.58475" y="700.666" type="curve" smooth="yes"/>
      <point x="17.8176" y="700.666"/>
      <point x="31.1567" y="686.848"/>
      <point x="31.1567" y="662.667" type="curve" smooth="yes"/>
      <point x="31.1567" y="633.65"/>
      <point x="5.88795" y="614.996"/>
      <point x="-44.6495" y="610.85" type="curve"/>
      <point x="-44.6495" y="530" type="line"/>
      <point x="45.3505" y="530" type="line"/>
      <point x="45.3505" y="569.807" type="line"/>
      <point x="96.873" y="585.544"/>
      <point x="121.35" y="613.51"/>
    </contour>
  </outline>
</glyph>
<glyph name="uni030B" format="2">
  <unicode hex="030B"/>
  <anchor x="0" y="580" name="_top"/>
  <outline>
    <contour>
      <point x="15.5" y="770" type="line"/>
      <point x="-134.5" y="770" type="line"/>
      <point x="-225.5" y="579" type="line"/>
      <point x="-127.5" y="579" type="line"/>
    </contour>
    <contour>
      <point x="225.5" y="770" type="line"/>
      <point x="75.5" y="770" type="line"/>
      <point x="-15.5" y="579" type="line"/>
      <point x="82.5" y="579" type="line"/>
    </contour>
  </outline>
  <guideline angle="90" x="-286" y="0"/>
</glyph>
<glyph name="uni0310" format="2">
  <advance width="1"/>
  <unicode hex="0310"/>
  <anchor x="-300" y="600" name="_top"/>
  <outline>
    <contour>
      <point x="-458" y="750" type="line"/>
      <point x="-450" y="660"/>
      <point x="-396" y="600"/>
      <point x="-298" y="600" type="curve" smooth="yes"/>
      <point x="-206" y="600"/>
      <point x="-148" y="667"/>
      <point x="-138" y="750" type="curve"/>
      <point x="-198" y="750" type="line"/>
      <point x="-198" y="720"/>
      <point x="-249" y="680"/>
      <point x="-299" y="680" type="curve" smooth="yes"/>
      <point x="-349" y="680"/>
      <point x="-398" y="720"/>
      <point x="-398" y="750" type="curve"/>
    </contour>
    <contour>
      <point x="-347" y="740" type="line"/>
      <point x="-237" y="740" type="line"/>
      <point x="-237" y="860" type="line"/>
      <point x="-347" y="860" type="line"/>
    </contour>
  </outline>
</glyph>
<glyph name="uni0311" format="2">
  <unicode hex="0311"/>
  <anchor x="0" y="600" name="_top"/>
  <outline>
    <contour>
      <point x="160" y="600" type="line"/>
      <point x="146.08" y="690"/>
      <point x="82.0804" y="750"/>
      <point x="0" y="750" type="curve" smooth="yes"/>
      <point x="-85.1555" y="750"/>
      <point x="-149.156" y="690"/>
      <point x="-160" y="600" type="curve"/>
      <point x="-70" y="600" type="line"/>
      <point x="-63.9343" y="642"/>
      <point x="-35.926" y="670"/>
      <point x="0.0208983" y="670" type="curve" smooth="yes"/>
      <point x="35.9803" y="670"/>
      <point x="63.9719" y="642"/>
      <point x="70" y="600" type="curve"/>
    </contour>
  </outline>
</glyph>
<glyph name="uni0318" format="2">
  <advance width="1"/>
  <unicode hex="0318"/>
  <outline>
    <contour>
      <point x="-222" y="-305" type="line"/>
      <point x="-222" y="-20" type="line"/>
      <point x="-317" y="-20" type="line"/>
      <point x="-317" y="-115" type="line"/>
      <point x="-420" y="-115" type="line"/>
      <point x="-420" y="-210" type="line"/>
      <point x="-317" y="-210" type="line"/>
      <point x="-317" y="-305" type="line"/>
    </contour>
  </outline>
</glyph>
<glyph name="uni0326" format="2">
  <unicode hex="0326"/>
  <anchor x="-282" y="-57" name="_bottom"/>
  <outline>
    <contour>
      <point x="-177" y="-57" type="line"/>
      <point x="-327" y="-57" type="line"/>
      <point x="-387" y="-307" type="line"/>
      <point x="-307" y="-307" type="line"/>
    </contour>
  </outline>
  <guideline angle="90" x="-387" y="0"/>
  <guideline angle="90" x="-177" y="0"/>
  <guideline angle="0" x="0" y="-57"/>
  <guideline angle="0" x="0" y="-307"/>
  <guideline angle="90" x="-282" y="0"/>
</glyph>
<glyph name="uni033B" format="2">
  <advance width="1"/>
  <unicode hex="033B"/>
  <outline>
    <contour>
      <point x="-244.97" y="-158.97" type="line"/>
      <point x="-244.97" y="-261.03" type="line"/>
      <point x="-347.03" y="-261.03" type="line"/>
      <point x="-347.03" y="-158.97" type="line"/>
    </contour>
    <contour>
      <point x="-149.59" y="-63.59" type="line"/>
      <point x="-442.41" y="-63.59" type="line"/>
      <point x="-442.41" y="-356.41" type="line"/>
      <point x="-149.59" y="-356.41" type="line"/>
    </contour>
  </outline>
</glyph>
<glyph name="Sigma" format="2">
  <advance width="626"/>
  <unicode hex="03A3"/>
  <outline>
    <contour>
      <point x="50" y="0" type="line"/>
      <point x="576" y="0" type="line"/>
      <point x="576" y="120" type="line"/>
      <point x="192" y="120" type="line"/>
      <point x="197.054" y="110.215" type="line"/>
      <point x="385" y="375" type="line"/>
      <point x="195.494" y="611.362" type="line"/>
      <point x="191" y="602" type="line"/>
      <point x="556" y="602" type="line"/>
      <point x="556" y="722" type="line"/>
      <point x="60" y="722" type="line"/>
      <point x="60" y="569" type="line"/>
      <point x="228.663" y="365.766" type="line"/>
      <point x="227.887" y="384.827" type="line"/>
      <point x="50" y="131" type="line"/>
    </contour>
  </outline>
</glyph>
<glyph name="Phi" format="2">
  <advance width="783"/>
  <unicode hex="03A6"/>
  <outline>
    <contour>
      <point x="314" y="-1" type="line"/>
      <point x="459" y="-1" type="line"/>
      <point x="459" y="721" type="line"/>
      <point x="314" y="721" type="line"/>
    </contour>
    <contour>
      <point x="445.4" y="62" type="line"/>
      <point x="469" y="62" type="line" smooth="yes"/>
      <point x="645" y="62"/>
      <point x="737" y="167"/>
      <point x="737" y="370" type="curve" smooth="yes"/>
      <point x="737" y="552"/>
      <point x="640" y="656"/>
      <point x="467" y="656" type="curve" smooth="yes"/>
      <point x="445.4" y="656" type="line"/>
      <point x="445.4" y="534" type="line"/>
      <point x="469" y="534" type="line" smooth="yes"/>
      <point x="549" y="534"/>
      <point x="587" y="478"/>
      <point x="587" y="360.723" type="curve" smooth="yes"/>
      <point x="587" y="245"/>
      <point x="550.056" y="184"/>
      <point x="469" y="184" type="curve" smooth="yes"/>
      <point x="445.4" y="184" type="line"/>
    </contour>
    <contour>
      <point x="327.6" y="62" type="line"/>
      <point x="327.6" y="184" type="line"/>
      <point x="306" y="184" type="line" smooth="yes"/>
      <point x="229.941" y="184"/>
      <point x="196" y="246"/>
      <point x="196" y="362.5" type="curve" smooth="yes"/>
      <point x="196" y="479"/>
      <point x="229.939" y="534"/>
      <point x="304" y="534" type="curve" smooth="yes"/>
      <point x="327.6" y="534" type="line"/>
      <point x="327.6" y="656" type="line"/>
      <point x="306" y="656" type="line" smooth="yes"/>
      <point x="140" y="656"/>
      <point x="46" y="552"/>
      <point x="46" y="370" type="curve" smooth="yes"/>
      <point x="46" y="166"/>
      <point x="133" y="62"/>
      <point x="304" y="62" type="curve" smooth="yes"/>
    </contour>
  </outline>
</glyph>
<glyph name="beta" format="2">
  <advance width="598"/>
  <unicode hex="03B2"/>
  <outline>
    <contour>
      <point x="292.503" y="652" type="curve" smooth="yes"/>
      <point x="347.731" y="652"/>
      <point x="381" y="606.057"/>
      <point x="381" y="529" type="curve" smooth="yes"/>
      <point x="381" y="451.633"/>
      <point x="354.06" y="413"/>
      <point x="300.108" y="413" type="curve" smooth="yes"/>
      <point x="241.072" y="413" type="line"/>
      <point x="241.072" y="309" type="line"/>
      <point x="313.94" y="309" type="line" smooth="yes"/>
      <point x="375.696" y="309"/>
      <point x="417" y="263.512"/>
      <point x="417" y="195.5" type="curve" smooth="yes"/>
      <point x="417" y="117.217"/>
      <point x="381.12" y="77"/>
      <point x="311.278" y="77" type="curve" smooth="yes"/>
      <point x="240.884" y="77"/>
      <point x="195" y="138.356"/>
      <point x="195" y="232.485" type="curve" smooth="yes"/>
      <point x="195" y="515" type="line" smooth="yes"/>
      <point x="195" y="607.446"/>
      <point x="226.709" y="652"/>
    </contour>
    <contour>
      <point x="294.884" y="736" type="curve" smooth="yes"/>
      <point x="143.343" y="736"/>
      <point x="60" y="666.099"/>
      <point x="60" y="539" type="curve" smooth="yes"/>
      <point x="60" y="-200" type="line"/>
      <point x="195" y="-200" type="line"/>
      <point x="195" y="61.9627" type="line"/>
      <point x="223.767" y="14.6046"/>
      <point x="278.409" y="-14"/>
      <point x="340.108" y="-14" type="curve" smooth="yes"/>
      <point x="469.878" y="-14"/>
      <point x="554" y="67.7526"/>
      <point x="554" y="193.868" type="curve" smooth="yes"/>
      <point x="554" y="291.427"/>
      <point x="509.808" y="358.996"/>
      <point x="430.148" y="383.238" type="curve"/>
      <point x="487.838" y="411.67"/>
      <point x="516" y="461.704"/>
      <point x="516" y="535.766" type="curve" smooth="yes"/>
      <point x="516" y="653.892"/>
      <point x="425.329" y="736"/>
    </contour>
  </outline>
</glyph>
<glyph name="epsilon" format="2">
  <advance width="551"/>
  <unicode hex="03B5"/>
  <anchor x="270" y="600" name="tonos.top"/>
  <outline>
    <contour>
      <point x="54" y="127" type="curve" smooth="yes"/>
      <point x="54" y="42"/>
      <point x="135" y="-14"/>
      <point x="265" y="-14" type="curve" smooth="yes"/>
      <point x="407" y="-14"/>
      <point x="496" y="53"/>
      <point x="496" y="154" type="curve"/>
      <point x="380" y="154" type="line"/>
      <point x="380" y="102"/>
      <point x="341" y="73"/>
      <point x="272" y="73" type="curve" smooth="yes"/>
      <point x="227" y="73"/>
      <point x="197" y="100"/>
      <point x="197" y="142" type="curve" smooth="yes"/>
      <point x="197" y="184"/>
      <point x="229" y="215"/>
      <point x="278" y="221" type="curve" smooth="yes"/>
      <point x="328" y="227" type="line"/>
      <point x="328" y="296" type="line"/>
      <point x="273" y="302" type="line" smooth="yes"/>
      <point x="234" y="306"/>
      <point x="212" y="331"/>
      <point x="212" y="372" type="curve" smooth="yes"/>
      <point x="212" y="402"/>
      <point x="241" y="427"/>
      <point x="274" y="427" type="curve" smooth="yes"/>
      <point x="326" y="427"/>
      <point x="360" y="398"/>
      <point x="360" y="354" type="curve"/>
      <point x="473" y="354" type="line"/>
      <point x="473" y="450"/>
      <point x="393" y="514"/>
      <point x="262" y="514" type="curve" smooth="yes"/>
      <point x="145" y="514"/>
      <point x="76" y="455"/>
      <point x="76" y="374" type="curve" smooth="yes"/>
      <point x="76" y="311"/>
      <point x="110" y="274"/>
      <point x="161" y="261" type="curve"/>
      <point x="163" y="268" type="line"/>
      <point x="88" y="248"/>
      <point x="54" y="204"/>
    </contour>
  </outline>
</glyph>
<glyph name="zeta" format="2">
  <advance width="444"/>
  <unicode hex="03B6"/>
  <outline>
    <contour>
      <point x="78" y="632" type="line"/>
      <point x="297" y="632" type="line"/>
      <point x="293.771" y="638.869" type="line"/>
      <point x="165.089" y="539.482"/>
      <point x="32" y="375.663"/>
      <point x="32" y="200.471" type="curve" smooth="yes"/>
      <point x="32" y="188.428" type="line" smooth="yes"/>
      <point x="32" y="79.9394"/>
      <point x="102" y="0"/>
      <point x="217" y="0" type="curve" smooth="yes"/>
      <point x="341" y="0" type="line" smooth="yes"/>
      <point x="358.2" y="0"/>
      <point x="368" y="-21.1881"/>
      <point x="368" y="-40.8026" type="curve" smooth="yes"/>
      <point x="368" y="-52.6599"/>
      <point x="364.419" y="-71.8145"/>
      <point x="359" y="-89" type="curve" smooth="yes"/>
      <point x="324" y="-200" type="line"/>
      <point x="444" y="-200" type="line"/>
      <point x="485" y="-58" type="line" smooth="yes"/>
      <point x="487.836" y="-48.1767"/>
      <point x="489.76" y="-19.7254"/>
      <point x="489.754" y="-6.19888" type="curve" smooth="yes"/>
      <point x="489.725" y="50.644"/>
      <point x="455.468" y="110"/>
      <point x="377" y="110" type="curve" smooth="yes"/>
      <point x="273" y="110" type="line" smooth="yes"/>
      <point x="213.789" y="110"/>
      <point x="176" y="136.528"/>
      <point x="176" y="209.431" type="curve" smooth="yes"/>
      <point x="176" y="221.547" type="line" smooth="yes"/>
      <point x="176" y="283.845"/>
      <point x="247.665" y="535.811"/>
      <point x="477" y="666.606" type="curve"/>
      <point x="477" y="722" type="line"/>
      <point x="78" y="722" type="line"/>
    </contour>
  </outline>
</glyph>
<glyph name="eta" format="2">
  <advance width="608"/>
  <unicode hex="03B7"/>
  <anchor x="300" y="600" name="tonos.top"/>
  <outline>
    <contour>
      <point x="91" y="0" type="line"/>
      <point x="225.95" y="0" type="line"/>
      <point x="225.95" y="416.057" type="line"/>
      <point x="218.585" y="415.935" type="line"/>
      <point x="205.245" y="481.643"/>
      <point x="163.213" y="500"/>
      <point x="85" y="500" type="curve" smooth="yes"/>
      <point x="64.3297" y="500"/>
      <point x="52.67" y="498.12"/>
      <point x="32" y="492" type="curve"/>
      <point x="32" y="402" type="line"/>
      <point x="35.0541" y="402.517"/>
      <point x="44.9234" y="404"/>
      <point x="52" y="404" type="curve" smooth="yes"/>
      <point x="72.7336" y="404"/>
      <point x="91" y="388.343"/>
      <point x="91" y="371.004" type="curve" smooth="yes"/>
    </contour>
    <contour>
      <point x="421" y="-200" type="line"/>
      <point x="557" y="-200" type="line"/>
      <point x="557" y="10" type="line"/>
      <point x="421" y="10" type="line"/>
    </contour>
    <contour>
      <point x="206" y="279.178" type="line"/>
      <point x="226" y="279.178" type="line"/>
      <point x="226" y="376"/>
      <point x="264" y="432"/>
      <point x="332" y="432" type="curve" smooth="yes"/>
      <point x="392" y="432"/>
      <point x="421" y="388"/>
      <point x="421" y="299" type="curve" smooth="yes"/>
      <point x="421" y="0" type="line"/>
      <point x="557" y="0" type="line"/>
      <point x="557" y="339" type="line" smooth="yes"/>
      <point x="557" y="451"/>
      <point x="495" y="514"/>
      <point x="386" y="514" type="curve"/>
      <point x="316" y="514"/>
      <point x="265.267" y="487.81"/>
      <point x="226" y="433" type="curve" smooth="yes"/>
      <point x="206" y="405.083" type="line"/>
    </contour>
  </outline>
  <guideline angle="90" x="226" y="0"/>
</glyph>
<glyph name="kappa" format="2">
  <advance width="556"/>
  <unicode hex="03BA"/>
  <outline>
    <contour>
      <point x="195" y="0" type="line"/>
      <point x="195" y="500" type="line"/>
      <point x="60" y="500" type="line"/>
      <point x="60" y="0" type="line"/>
    </contour>
    <contour>
      <point x="195.602" y="271.429" type="line"/>
      <point x="379" y="0" type="line"/>
      <point x="546" y="0" type="line"/>
      <point x="321.572" y="330.408" type="line"/>
    </contour>
    <contour>
      <point x="540" y="500" type="line"/>
      <point x="370" y="500" type="line"/>
      <point x="138.926" y="288.882" type="line"/>
      <point x="139" y="138.062" type="line"/>
    </contour>
  </outline>
  <guideline angle="222.409" x="370" y="500"/>
  <guideline angle="42.0739" x="139" y="138"/>
  <guideline angle="304.03" x="196" y="271"/>
  <guideline angle="124.168" x="546" y="0"/>
</glyph>
<glyph name="mu" format="2">
  <advance width="660"/>
  <unicode hex="03BC"/>
  <outline>
    <contour>
      <point x="65" y="-200" type="line"/>
      <point x="200" y="-200" type="line"/>
      <point x="200" y="500" type="line"/>
      <point x="65" y="500" type="line"/>
    </contour>
    <contour>
      <point x="546" y="-14" type="curve"/>
      <point x="577.572" y="-14"/>
      <point x="616" y="-5"/>
      <point x="641" y="10" type="curve"/>
      <point x="641" y="94" type="line"/>
      <point x="625" y="83"/>
      <point x="607.024" y="76"/>
      <point x="586" y="76" type="curve" smooth="yes"/>
      <point x="547" y="76"/>
      <point x="531" y="89"/>
      <point x="531" y="151" type="curve" smooth="yes"/>
      <point x="531" y="500" type="line"/>
      <point x="396" y="500" type="line"/>
      <point x="396" y="169.335" type="line" smooth="yes"/>
      <point x="396" y="46.7586"/>
      <point x="445.712" y="-14"/>
    </contour>
    <contour>
      <point x="180" y="37.5454" type="line"/>
      <point x="200" y="23" type="line" smooth="yes"/>
      <point x="233" y="-1"/>
      <point x="263" y="-13"/>
      <point x="290" y="-13" type="curve" smooth="yes"/>
      <point x="345.075" y="-13"/>
      <point x="385.591" y="18.5462"/>
      <point x="412.883" y="82.9752" type="curve"/>
      <point x="406" y="211.445" type="line"/>
      <point x="396" y="211" type="line"/>
      <point x="396" y="134"/>
      <point x="364" y="77"/>
      <point x="290" y="77" type="curve" smooth="yes"/>
      <point x="221" y="77"/>
      <point x="200" y="118"/>
      <point x="200" y="190.033" type="curve"/>
      <point x="180" y="190.033" type="line"/>
    </contour>
  </outline>
</glyph>
<glyph name="rho" format="2">
  <advance width="608"/>
  <unicode hex="03C1"/>
  <outline>
    <contour>
      <point x="60" y="-200" type="line"/>
      <point x="195" y="-200" type="line"/>
      <point x="195" y="45" type="line"/>
      <point x="236.292" y="0"/>
      <point x="289.293" y="-14"/>
      <point x="341.749" y="-14" type="curve" smooth="yes"/>
      <point x="488.887" y="-14"/>
      <point x="564" y="102"/>
      <point x="564" y="257" type="curve" smooth="yes"/>
      <point x="564" y="396.185"/>
      <point x="486.842" y="514"/>
      <point x="331.834" y="514" type="curve" smooth="yes"/>
      <point x="140.005" y="514"/>
      <point x="60" y="416.41"/>
      <point x="60" y="214.669" type="curve" smooth="yes"/>
    </contour>
    <contour>
      <point x="195.903" y="283.567" type="line" smooth="yes"/>
      <point x="195.805" y="366.047"/>
      <point x="240.47" y="424"/>
      <point x="310.021" y="424" type="curve" smooth="yes"/>
      <point x="399.792" y="424"/>
      <point x="429" y="333.002"/>
      <point x="429" y="257" type="curve"/>
      <point x="428.576" y="239.706" type="line" smooth="yes"/>
      <point x="424.874" y="163.988"/>
      <point x="396.029" y="70"/>
      <point x="307.047" y="70" type="curve" smooth="yes"/>
      <point x="240.47" y="70"/>
      <point x="196.087" y="127.941"/>
      <point x="196" y="202" type="curve" smooth="yes"/>
    </contour>
  </outline>
  <guideline angle="90" x="60" y="0"/>
</glyph>
<glyph name="sigma" format="2">
  <advance width="608"/>
  <unicode hex="03C3"/>
  <outline>
    <component base="o"/>
    <contour>
      <point x="474" y="401" type="line"/>
      <point x="600" y="401" type="line"/>
      <point x="600" y="500" type="line"/>
      <point x="388" y="500" type="line"/>
    </contour>
  </outline>
</glyph>
<glyph name="upsilon" format="2">
  <advance width="587"/>
  <unicode hex="03C5"/>
  <anchor x="284" y="600" name="tonos.top"/>
  <outline>
    <contour>
      <point x="60" y="158" type="line" smooth="yes"/>
      <point x="60" y="37.9149"/>
      <point x="178.434" y="-12"/>
      <point x="271.75" y="-12" type="curve" smooth="yes"/>
      <point x="316.274" y="-12" type="line" smooth="yes"/>
      <point x="389.682" y="-12"/>
      <point x="528" y="38"/>
      <point x="528" y="158" type="curve" smooth="yes"/>
      <point x="528" y="500" type="line"/>
      <point x="393" y="500" type="line"/>
      <point x="393" y="185" type="line" smooth="yes"/>
      <point x="393" y="84.6153"/>
      <point x="365.173" y="74"/>
      <point x="294.46" y="74" type="curve" smooth="yes"/>
      <point x="244.661" y="74"/>
      <point x="195" y="85"/>
      <point x="195" y="185" type="curve" smooth="yes"/>
      <point x="195" y="500" type="line"/>
      <point x="60" y="500" type="line"/>
    </contour>
  </outline>
</glyph>
<glyph name="psi" format="2">
  <advance width="740"/>
  <unicode hex="03C8"/>
  <outline>
    <contour>
      <point x="304" y="-200" type="line"/>
      <point x="439" y="-200" type="line"/>
      <point x="439" y="722" type="line"/>
      <point x="304" y="722" type="line"/>
    </contour>
    <contour>
      <point x="423.532" y="-13.7172" type="line"/>
      <point x="528.976" y="-14.4669"/>
      <point x="681" y="35.9058"/>
      <point x="681" y="203" type="curve" smooth="yes"/>
      <point x="681" y="501" type="line"/>
      <point x="546" y="501" type="line"/>
      <point x="546" y="190" type="line" smooth="yes"/>
      <point x="546" y="117.269"/>
      <point x="505.588" y="72.9072"/>
      <point x="423.532" y="73.0118" type="curve"/>
    </contour>
    <contour>
      <point x="323.247" y="72.7433" type="line"/>
      <point x="244.023" y="73.1911"/>
      <point x="195" y="102.769"/>
      <point x="195" y="190" type="curve" smooth="yes"/>
      <point x="195" y="501" type="line"/>
      <point x="60" y="501" type="line"/>
      <point x="60" y="202" type="line" smooth="yes"/>
      <point x="60" y="98.5788"/>
      <point x="141.449" y="-13.9763"/>
      <point x="323.248" y="-14.3553" type="curve"/>
    </contour>
  </outline>
</glyph>
<glyph name="uni0424" format="2">
  <advance width="795"/>
  <unicode hex="0424"/>
  <outline>
    <contour>
      <point x="465" y="721" type="line"/>
      <point x="320" y="721" type="line"/>
      <point x="320" y="-1" type="line"/>
      <point x="465" y="-1" type="line"/>
    </contour>
    <contour>
      <point x="465" y="62" type="line"/>
      <point x="494.196" y="62" type="line" smooth="yes"/>
      <point x="647.079" y="62"/>
      <point x="749" y="185.2"/>
      <point x="749" y="370" type="curve" smooth="yes"/>
      <point x="749" y="541"/>
      <point x="647.079" y="655"/>
      <point x="494.196" y="655" type="curve" smooth="yes"/>
      <point x="464.8" y="655" type="line"/>
      <point x="465" y="540" type="line"/>
      <point x="485" y="540" type="line" smooth="yes"/>
      <point x="549.8" y="540"/>
      <point x="593" y="468.272"/>
      <point x="593" y="360.68" type="curve" smooth="yes"/>
      <point x="593" y="251.372"/>
      <point x="549.8" y="178.5"/>
      <point x="485" y="178.5" type="curve" smooth="yes"/>
      <point x="465" y="178.5" type="line"/>
    </contour>
    <contour>
      <point x="320.2" y="178.5" type="line"/>
      <point x="302" y="178.5" type="line" smooth="yes"/>
      <point x="242" y="178.5"/>
      <point x="202" y="252.101"/>
      <point x="202" y="362.501" type="curve" smooth="yes"/>
      <point x="202" y="469"/>
      <point x="241.2" y="540"/>
      <point x="300" y="540" type="curve" smooth="yes"/>
      <point x="320" y="540" type="line"/>
      <point x="320.2" y="656" type="line"/>
      <point x="290.796" y="656" type="line" smooth="yes"/>
      <point x="143.919" y="656"/>
      <point x="46" y="541.6"/>
      <point x="46" y="370" type="curve" smooth="yes"/>
      <point x="46" y="185.2"/>
      <point x="143.919" y="62"/>
      <point x="290.796" y="62" type="curve" smooth="yes"/>
      <point x="320" y="62" type="line"/>
    </contour>
  </outline>
</glyph>
<glyph name="uni0426" format="2">
  <advance width="734"/>
  <unicode hex="0426"/>
  <outline>
    <contour>
      <point x="205" y="-0.0887" type="line"/>
      <point x="205" y="722" type="line"/>
      <point x="60" y="722" type="line"/>
      <point x="60" y="0" type="line"/>
    </contour>
    <contour>
      <point x="629" y="0" type="line"/>
      <point x="629" y="722" type="line"/>
      <point x="484" y="722" type="line"/>
      <point x="484" y="0" type="line"/>
    </contour>
    <contour>
      <point x="484.374" y="120" type="line"/>
      <point x="484" y="0" type="line"/>
      <point x="205" y="0" type="line"/>
      <point x="204.888" y="120" type="line"/>
    </contour>
    <contour>
      <point x="588" y="-160" type="line"/>
      <point x="724" y="-160" type="line"/>
      <point x="724" y="120" type="line"/>
      <point x="483.9" y="120" type="line"/>
      <point x="484" y="0" type="line"/>
      <point x="588" y="0" type="line"/>
    </contour>
  </outline>
</glyph>
<glyph name="uni0427" format="2">
  <advance width="672"/>
  <unicode hex="0427"/>
  <outline>
    <contour>
      <point x="467" y="722" type="line"/>
      <point x="467" y="0" type="line"/>
      <point x="612" y="0" type="line"/>
      <point x="612" y="722" type="line"/>
    </contour>
    <contour>
      <point x="323.795" y="215" type="curve" smooth="yes"/>
      <point x="385.851" y="215"/>
      <point x="448.879" y="230.806"/>
      <point x="488.837" y="258.897" type="curve"/>
      <point x="488.837" y="372.136" type="line"/>
      <point x="451.347" y="348.929"/>
      <point x="388.751" y="336"/>
      <point x="322.269" y="336" type="curve" smooth="yes"/>
      <point x="209.753" y="336"/>
      <point x="191" y="413.148"/>
      <point x="191" y="514.994" type="curve" smooth="yes"/>
      <point x="191" y="722" type="line"/>
      <point x="46" y="722" type="line"/>
      <point x="46" y="494.416" type="line" smooth="yes"/>
      <point x="46" y="313.851"/>
      <point x="143.801" y="215"/>
    </contour>
  </outline>
</glyph>
<glyph name="uni0428" format="2">
  <advance width="995"/>
  <unicode hex="0428"/>
  <outline>
    <contour>
      <point x="425" y="120" type="line"/>
      <point x="205" y="120" type="line"/>
      <point x="205" y="722" type="line"/>
      <point x="60" y="722" type="line"/>
      <point x="60" y="0" type="line"/>
      <point x="935" y="0" type="line"/>
      <point x="935" y="722" type="line"/>
      <point x="790" y="722" type="line"/>
      <point x="790" y="120" type="line"/>
      <point x="570" y="120" type="line"/>
      <point x="570" y="722" type="line"/>
      <point x="425" y="722" type="line"/>
    </contour>
  </outline>
  <guideline angle="90" x="488" y="0"/>
</glyph>
<glyph name="uni0429" format="2">
  <advance width="1040"/>
  <unicode hex="0429"/>
  <outline>
    <component base="uni0428"/>
    <contour>
      <point x="894" y="-160" type="line"/>
      <point x="1030" y="-160" type="line"/>
      <point x="1030" y="120" type="line"/>
      <point x="789.9" y="120" type="line"/>
      <point x="790" y="0" type="line"/>
      <point x="894" y="0" type="line"/>
    </contour>
  </outline>
</glyph>
<glyph name="uni042A" format="2">
  <advance width="717"/>
  <unicode hex="042A"/>
  <outline>
    <component base="uni042C" xOffset="82"/>
    <contour>
      <point x="141.993" y="600" type="line"/>
      <point x="141.993" y="722" type="line"/>
      <point x="20" y="722" type="line"/>
      <point x="20" y="600" type="line"/>
    </contour>
  </outline>
</glyph>
<glyph name="uni042C" format="2">
  <advance width="625"/>
  <unicode hex="042C"/>
  <outline>
    <contour>
      <point x="60" y="0" type="line"/>
      <point x="210" y="0" type="line"/>
      <point x="210" y="722" type="line"/>
      <point x="60" y="722" type="line"/>
    </contour>
    <contour>
      <point x="325.639" y="316" type="line" smooth="yes"/>
      <point x="384.055" y="316"/>
      <point x="423" y="276.628"/>
      <point x="423" y="217.571" type="curve" smooth="yes"/>
      <point x="423" y="156.628"/>
      <point x="384.055" y="116"/>
      <point x="325.639" y="116" type="curve" smooth="yes"/>
      <point x="180" y="116" type="line"/>
      <point x="180" y="0" type="line"/>
      <point x="355" y="0" type="line" smooth="yes"/>
      <point x="489.4" y="0"/>
      <point x="579" y="85.5442"/>
      <point x="579" y="213.861" type="curve" smooth="yes"/>
      <point x="579" y="344.744"/>
      <point x="489.4" y="432"/>
      <point x="355" y="432" type="curve" smooth="yes"/>
      <point x="180" y="432" type="line"/>
      <point x="180" y="316" type="line"/>
    </contour>
  </outline>
</glyph>
<glyph name="uni042D" format="2">
  <advance width="733"/>
  <unicode hex="042D"/>
  <outline>
    <contour>
      <point x="46" y="193.567" type="line"/>
      <point x="100" y="79"/>
      <point x="205" y="-14"/>
      <point x="347" y="-14" type="curve" smooth="yes"/>
      <point x="558" y="-14"/>
      <point x="687" y="141.826"/>
      <point x="687" y="371.533" type="curve" smooth="yes"/>
      <point x="687" y="587.699"/>
      <point x="571" y="732"/>
      <point x="349.772" y="732" type="curve" smooth="yes"/>
      <point x="197" y="732"/>
      <point x="94" y="663.186"/>
      <point x="50" y="543.226" type="curve"/>
      <point x="191" y="543.226" type="line"/>
      <point x="226" y="591.742"/>
      <point x="278" y="616"/>
      <point x="347" y="616" type="curve" smooth="yes"/>
      <point x="497.891" y="616"/>
      <point x="540.775" y="498.483"/>
      <point x="540.775" y="367.818" type="curve" smooth="yes"/>
      <point x="540.775" y="231.607"/>
      <point x="509.04" y="107"/>
      <point x="355.385" y="107" type="curve" smooth="yes"/>
      <point x="273" y="107"/>
      <point x="222" y="142.821"/>
      <point x="190" y="193.567" type="curve"/>
    </contour>
    <contour>
      <point x="552" y="428" type="line"/>
      <point x="264" y="428" type="line"/>
      <point x="264" y="307" type="line"/>
      <point x="552" y="307" type="line"/>
    </contour>
  </outline>
</glyph>
<glyph name="uni042F" format="2">
  <advance width="650"/>
  <unicode hex="042F"/>
  <outline>
    <component base="I" xOffset="370"/>
    <contour>
      <point x="341" y="430" type="line" smooth="yes"/>
      <point x="248" y="430"/>
      <point x="206" y="456.444"/>
      <point x="206" y="515" type="curve" smooth="yes"/>
      <point x="206" y="574.844"/>
      <point x="247.058" y="601"/>
      <point x="341" y="601" type="curve" smooth="yes"/>
      <point x="440.032" y="601" type="line"/>
      <point x="439.985" y="722" type="line"/>
      <point x="340" y="722" type="line" smooth="yes"/>
      <point x="141.398" y="722"/>
      <point x="56" y="663.063"/>
      <point x="56" y="533.684" type="curve" smooth="yes"/>
      <point x="56" y="441.607"/>
      <point x="99.254" y="388.145"/>
      <point x="189.301" y="363.216" type="curve"/>
      <point x="185.336" y="375.111" type="line"/>
      <point x="123.557" y="354.915"/>
      <point x="97.5992" y="314.592"/>
      <point x="81.5682" y="216.543" type="curve" smooth="yes"/>
      <point x="46" y="-1" type="line"/>
      <point x="193.579" y="-1" type="line"/>
      <point x="226.377" y="199.444" type="line" smooth="yes"/>
      <point x="239.853" y="281.804"/>
      <point x="269.891" y="309"/>
      <point x="348" y="309" type="curve" smooth="yes"/>
      <point x="440" y="309" type="line"/>
      <point x="440" y="430" type="line"/>
    </contour>
  </outline>
</glyph>
<glyph name="uni0431" format="2">
  <advance width="618"/>
  <unicode hex="0431"/>
  <outline>
    <contour>
      <point x="50" y="262" type="curve" smooth="yes"/>
      <point x="50" y="102"/>
      <point x="144" y="-13"/>
      <point x="306.226" y="-13" type="curve" smooth="yes"/>
      <point x="474" y="-13"/>
      <point x="568" y="105.071"/>
      <point x="568" y="249.059" type="curve" smooth="yes"/>
      <point x="568" y="393.624"/>
      <point x="472.8" y="490"/>
      <point x="330" y="490" type="curve" smooth="yes"/>
      <point x="268" y="490"/>
      <point x="201" y="476"/>
      <point x="152" y="411" type="curve"/>
      <point x="149" y="411" type="line"/>
      <point x="164.316" y="507.661"/>
      <point x="229.56" y="534.387"/>
      <point x="366.731" y="551.273" type="curve" smooth="yes"/>
      <point x="478.056" y="564.977"/>
      <point x="518.975" y="627.63"/>
      <point x="536" y="722" type="curve"/>
      <point x="443.084" y="722" type="line"/>
      <point x="423.426" y="702.6"/>
      <point x="363" y="684"/>
      <point x="295" y="672" type="curve" smooth="yes"/>
      <point x="164" y="649"/>
      <point x="50" y="580"/>
    </contour>
    <contour>
      <point x="190" y="250.792" type="curve" smooth="yes"/>
      <point x="190" y="344.736"/>
      <point x="238.164" y="407"/>
      <point x="310.834" y="407" type="curve" smooth="yes"/>
      <point x="385.01" y="407"/>
      <point x="428" y="346.296"/>
      <point x="428" y="241.554" type="curve" smooth="yes"/>
      <point x="428" y="164.219"/>
      <point x="404" y="72"/>
      <point x="309.48" y="72" type="curve" smooth="yes"/>
      <point x="214" y="72"/>
      <point x="190" y="166.101"/>
    </contour>
  </outline>
</glyph>
<glyph name="uni0434" format="2">
  <advance width="609"/>
  <unicode hex="0434"/>
  <outline>
    <contour>
      <point x="535" y="80" type="line"/>
      <point x="535" y="500" type="line"/>
      <point x="140" y="500" type="line"/>
      <point x="137" y="429" type="line" smooth="yes"/>
      <point x="125.643" y="160.222"/>
      <point x="63.7445" y="70.284"/>
      <point x="19.5075" y="70.268" type="curve"/>
      <point x="20.3609" y="59.5235" type="line"/>
      <point x="160.304" y="60.1748" type="line"/>
      <point x="159.618" y="69.7108" type="line"/>
      <point x="202.014" y="70.0389"/>
      <point x="249.679" y="211.792"/>
      <point x="257.813" y="366.87" type="curve" smooth="yes"/>
      <point x="259.813" y="405" type="line"/>
      <point x="400" y="405" type="line"/>
      <point x="400" y="80" type="line"/>
    </contour>
    <contour>
      <point x="10" y="95" type="line"/>
      <point x="10" y="-160" type="line"/>
      <point x="140" y="-160" type="line"/>
      <point x="140" y="0" type="line"/>
      <point x="469" y="0" type="line"/>
      <point x="469" y="-160" type="line"/>
      <point x="599" y="-160" type="line"/>
      <point x="599" y="95" type="line"/>
    </contour>
  </outline>
</glyph>
<glyph name="uni0442" format="2">
  <advance width="435"/>
  <unicode hex="0442"/>
  <outline>
    <contour>
      <point x="150" y="0" type="line"/>
      <point x="285" y="0" type="line"/>
      <point x="285" y="405" type="line"/>
      <point x="425" y="405" type="line"/>
      <point x="425" y="500" type="line"/>
      <point x="10" y="500" type="line"/>
      <point x="10" y="405" type="line"/>
      <point x="150" y="405" type="line"/>
    </contour>
  </outline>
  <guideline angle="90" x="221" y="0"/>
</glyph>
<glyph name="uni0444" format="2">
  <advance width="942"/>
  <unicode hex="0444"/>
  <outline>
    <contour>
      <point x="400" y="-183" type="line"/>
      <point x="535" y="-183" type="line"/>
      <point x="535" y="706" type="line"/>
      <point x="400" y="706" type="line"/>
    </contour>
    <contour>
      <point x="275" y="-13" type="curve" smooth="yes"/>
      <point x="321.552" y="-13"/>
      <point x="393.304" y="4.5692"/>
      <point x="419.788" y="42.4895" type="curve"/>
      <point x="419.633" y="126.182" type="line"/>
      <point x="380.344" y="94.6722"/>
      <point x="346.801" y="82"/>
      <point x="295" y="82" type="curve" smooth="yes"/>
      <point x="225" y="82"/>
      <point x="179" y="128.724"/>
      <point x="179" y="260.941" type="curve" smooth="yes"/>
      <point x="179" y="362.341"/>
      <point x="228" y="420"/>
      <point x="298" y="420" type="curve" smooth="yes"/>
      <point x="355.707" y="420"/>
      <point x="385" y="408.294"/>
      <point x="419.971" y="370.947" type="curve"/>
      <point x="420.184" y="454.025" type="line"/>
      <point x="390.37" y="489.241"/>
      <point x="334.591" y="515"/>
      <point x="277" y="515" type="curve" smooth="yes"/>
      <point x="114" y="515"/>
      <point x="44" y="406.082"/>
      <point x="44" y="250.006" type="curve" smooth="yes"/>
      <point x="44" y="95.9176"/>
      <point x="112" y="-13"/>
    </contour>
    <contour>
      <point x="651" y="-13" type="curve" smooth="yes"/>
      <point x="814" y="-13"/>
      <point x="898" y="95.9176"/>
      <point x="898" y="253.379" type="curve" smooth="yes"/>
      <point x="898" y="406.082"/>
      <point x="819" y="515"/>
      <point x="669" y="515" type="curve" smooth="yes"/>
      <point x="599.453" y="515"/>
      <point x="546.372" y="490.627"/>
      <point x="514.887" y="455.334" type="curve"/>
      <point x="515.029" y="371.03" type="line"/>
      <point x="554.641" y="403.095"/>
      <point x="583.317" y="420"/>
      <point x="643" y="420" type="curve" smooth="yes"/>
      <point x="701" y="420"/>
      <point x="763" y="368.306"/>
      <point x="763" y="260.941" type="curve" smooth="yes"/>
      <point x="763" y="128.724"/>
      <point x="702" y="82"/>
      <point x="643" y="82" type="curve" smooth="yes"/>
      <point x="587.323" y="82"/>
      <point x="558.127" y="94.6722"/>
      <point x="515.116" y="125.383" type="curve"/>
      <point x="514.623" y="42.8034" type="line"/>
      <point x="545.105" y="3.68325"/>
      <point x="603.924" y="-13"/>
    </contour>
  </outline>
</glyph>
<glyph name="uni044E" format="2">
  <advance width="814"/>
  <unicode hex="044E"/>
  <outline>
    <component base="dotlessi"/>
    <component base="o" xOffset="210"/>
    <contour>
      <point x="180" y="214" type="line"/>
      <point x="283" y="214" type="line"/>
      <point x="283" y="309" type="line"/>
      <point x="180" y="309" type="line"/>
    </contour>
  </outline>
</glyph>
<glyph name="uni0454" format="2">
  <advance width="596"/>
  <unicode hex="0454"/>
  <outline>
    <contour>
      <point x="417" y="172" type="line"/>
      <point x="398" y="123"/>
      <point x="366" y="83"/>
      <point x="303.249" y="83" type="curve" smooth="yes"/>
      <point x="211.293" y="83"/>
      <point x="185.359" y="168.899"/>
      <point x="185.359" y="245.733" type="curve" smooth="yes"/>
      <point x="185.359" y="329.157"/>
      <point x="216.157" y="413"/>
      <point x="303.17" y="413" type="curve" smooth="yes"/>
      <point x="355" y="413"/>
      <point x="389" y="383.252"/>
      <point x="412" y="338.63" type="curve"/>
      <point x="545" y="338.63" type="line"/>
      <point x="507" y="441"/>
      <point x="415" y="509"/>
      <point x="307" y="509" type="curve" smooth="yes"/>
      <point x="148" y="509"/>
      <point x="50" y="407.05"/>
      <point x="50" y="248.516" type="curve" smooth="yes"/>
      <point x="50" y="89"/>
      <point x="148" y="-13"/>
      <point x="307" y="-13" type="curve" smooth="yes"/>
      <point x="422" y="-13"/>
      <point x="512" y="61"/>
      <point x="546" y="172" type="curve"/>
    </contour>
    <contour>
      <point x="174.5" y="199" type="line"/>
      <point x="396" y="199" type="line"/>
      <point x="396" y="295" type="line"/>
      <point x="174.5" y="295" type="line"/>
    </contour>
  </outline>
</glyph>
<glyph name="ljecyr" format="2">
  <advance width="858"/>
  <unicode hex="0459"/>
  <outline>
    <component base="uni043B"/>
    <contour>
      <point x="532" y="0" type="line"/>
      <point x="574" y="0" type="line" smooth="yes"/>
      <point x="716" y="0"/>
      <point x="820" y="33"/>
      <point x="820" y="168.483" type="curve" smooth="yes"/>
      <point x="820" y="300"/>
      <point x="722" y="349"/>
      <point x="586" y="349" type="curve" smooth="yes"/>
      <point x="532" y="349" type="line"/>
      <point x="532" y="252" type="line"/>
      <point x="586" y="252" type="line" smooth="yes"/>
      <point x="649" y="252"/>
      <point x="679" y="232"/>
      <point x="679" y="170" type="curve" smooth="yes"/>
      <point x="679" y="106"/>
      <point x="645" y="97"/>
      <point x="575" y="97" type="curve" smooth="yes"/>
      <point x="531.658" y="97" type="line"/>
    </contour>
  </outline>
</glyph>
<glyph name="uni2010" format="2">
  <advance width="336"/>
  <unicode hex="2010"/>
  <outline>
    <contour>
      <point x="40" y="190" type="line"/>
      <point x="297" y="190" type="line"/>
      <point x="297" y="321" type="line"/>
      <point x="40" y="321" type="line"/>
    </contour>
  </outline>
</glyph>
<glyph name="quoteleft" format="2">
  <advance width="255"/>
  <unicode hex="2018"/>
  <anchor x="90" y="470" name="_cedilla.top"/>
  <outline>
    <contour>
      <point x="20" y="470" type="line"/>
      <point x="156" y="470" type="line"/>
      <point x="235" y="722" type="line"/>
      <point x="140" y="722" type="line"/>
    </contour>
  </outline>
</glyph>
<glyph name="quoteright" format="2">
  <advance width="275"/>
  <unicode hex="2019"/>
  <anchor x="71" y="722" name="_caron_TR"/>
  <outline>
    <contour>
      <point x="246" y="722" type="line"/>
      <point x="110" y="722" type="line"/>
      <point x="31" y="470" type="line"/>
      <point x="126" y="470" type="line"/>
    </contour>
  </outline>
</glyph>
<glyph name="perthousand" format="2">
  <advance width="1454"/>
  <unicode hex="2030"/>
  <outline>
    <component base="percent"/>
    <contour>
      <point x="1024" y="195" type="curve" smooth="yes"/>
      <point x="1024" y="78"/>
      <point x="1102" y="-7"/>
      <point x="1222" y="-7" type="curve" smooth="yes"/>
      <point x="1342" y="-7"/>
      <point x="1422" y="79"/>
      <point x="1422" y="196" type="curve" smooth="yes"/>
      <point x="1422" y="313"/>
      <point x="1343" y="401"/>
      <point x="1224" y="401" type="curve" smooth="yes"/>
      <point x="1104" y="401"/>
      <point x="1024" y="313"/>
    </contour>
    <contour>
      <point x="1127" y="197" type="curve" smooth="yes"/>
      <point x="1127" y="272"/>
      <point x="1153" y="334"/>
      <point x="1222" y="334" type="curve" smooth="yes"/>
      <point x="1291" y="334"/>
      <point x="1316" y="272"/>
      <point x="1316" y="197" type="curve" smooth="yes"/>
      <point x="1316" y="122"/>
      <point x="1291" y="60"/>
      <point x="1222" y="60" type="curve" smooth="yes"/>
      <point x="1153" y="60"/>
      <point x="1127" y="122"/>
    </contour>
  </outline>
</glyph>
<glyph name="pertenthousandsign" format="2">
  <advance width="1918"/>
  <unicode hex="2031"/>
  <outline>
    <component base="perthousand"/>
    <contour>
      <point x="1488" y="195" type="curve" smooth="yes"/>
      <point x="1488" y="78"/>
      <point x="1566" y="-7"/>
      <point x="1686" y="-7" type="curve" smooth="yes"/>
      <point x="1806" y="-7"/>
      <point x="1886" y="79"/>
      <point x="1886" y="196" type="curve" smooth="yes"/>
      <point x="1886" y="313"/>
      <point x="1807" y="401"/>
      <point x="1688" y="401" type="curve" smooth="yes"/>
      <point x="1568" y="401"/>
      <point x="1488" y="313"/>
    </contour>
    <contour>
      <point x="1591" y="197" type="curve" smooth="yes"/>
      <point x="1591" y="272"/>
      <point x="1617" y="334"/>
      <point x="1686" y="334" type="curve" smooth="yes"/>
      <point x="1755" y="334"/>
      <point x="1780" y="272"/>
      <point x="1780" y="197" type="curve" smooth="yes"/>
      <point x="1780" y="122"/>
      <point x="1755" y="60"/>
      <point x="1686" y="60" type="curve" smooth="yes"/>
      <point x="1617" y="60"/>
      <point x="1591" y="122"/>
    </contour>
  </outline>
  <guideline angle="0" x="0" y="192"/>
</glyph>
<glyph name="product" format="2">
  <advance width="858"/>
  <unicode hex="220F"/>
  <outline>
    <contour>
      <point x="736" y="4" type="curve" smooth="yes"/>
      <point x="736" y="655" type="line" smooth="yes"/>
      <point x="736" y="724"/>
      <point x="769" y="759"/>
      <point x="834" y="759" type="curve"/>
      <point x="834" y="783" type="line"/>
      <point x="29" y="783" type="line"/>
      <point x="29" y="759" type="line"/>
      <point x="95" y="759"/>
      <point x="128" y="724"/>
      <point x="128" y="655" type="curve" smooth="yes"/>
      <point x="128" y="4" type="line" smooth="yes"/>
      <point x="128" y="-65"/>
      <point x="97" y="-80"/>
      <point x="27" y="-80" type="curve"/>
      <point x="27" y="-104" type="line"/>
      <point x="348" y="-104" type="line"/>
      <point x="348" y="-80" type="line"/>
      <point x="279" y="-80"/>
      <point x="246" y="-65"/>
      <point x="246" y="4" type="curve" smooth="yes"/>
      <point x="246" y="725" type="line"/>
      <point x="618" y="725" type="line"/>
      <point x="618" y="4" type="line" smooth="yes"/>
      <point x="618" y="-65"/>
      <point x="587" y="-80"/>
      <point x="518" y="-80" type="curve"/>
      <point x="518" y="-104" type="line"/>
      <point x="837" y="-104" type="line"/>
      <point x="837" y="-80" type="line"/>
      <point x="768" y="-80"/>
      <point x="736" y="-65"/>
    </contour>
  </outline>
</glyph>
<glyph name="lessequal" format="2">
  <advance width="720"/>
  <unicode hex="2264"/>
  <outline>
    <contour>
      <point x="690" y="0" type="line"/>
      <point x="690" y="115" type="line"/>
      <point x="30" y="115" type="line"/>
      <point x="30" y="0" type="line"/>
    </contour>
    <contour>
      <point x="30" y="347" type="line"/>
      <point x="690" y="117" type="line"/>
      <point x="690" y="239" type="line"/>
      <point x="142.75" y="442.177" type="line"/>
      <point x="142.75" y="433.823" type="line"/>
      <point x="690" y="637" type="line"/>
      <point x="690" y="759" type="line"/>
      <point x="30" y="529" type="line"/>
    </contour>
  </outline>
  <guideline angle="197.551" x="690" y="597"/>
  <guideline angle="16.06" x="30" y="529"/>
  <guideline angle="343.531" x="142" y="431"/>
  <guideline angle="163.94" x="690" y="157"/>
  <guideline angle="90" x="690" y="0"/>
  <guideline angle="90" x="30" y="0"/>
  <guideline angle="0" x="0" y="335"/>
</glyph>
<glyph name="uniFB00" format="2">
  <advance width="708"/>
  <unicode hex="FB00"/>
  <outline>
    <component base="f"/>
    <component base="f" xOffset="354"/>
    <contour>
      <point x="282" y="415" type="line"/>
      <point x="422" y="415" type="line"/>
      <point x="422" y="500" type="line"/>
      <point x="282" y="500" type="line"/>
    </contour>
  </outline>
</glyph>
<glyph name="uniFB01" format="2">
  <advance width="636"/>
  <unicode hex="FB01"/>
  <outline>
    <contour>
      <point x="100" y="0" type="line"/>
      <point x="235" y="0" type="line"/>
      <point x="235" y="415" type="line"/>
      <point x="431" y="415" type="line"/>
      <point x="431" y="0" type="line"/>
      <point x="566" y="0" type="line"/>
      <point x="566" y="500" type="line"/>
      <point x="235" y="500" type="line"/>
      <point x="235" y="572" type="line" smooth="yes"/>
      <point x="235" y="623"/>
      <point x="261" y="646"/>
      <point x="303" y="646" type="curve" smooth="yes"/>
      <point x="321" y="646"/>
      <point x="337" y="642"/>
      <point x="355" y="632" type="curve"/>
      <point x="355" y="717" type="line"/>
      <point x="323" y="729"/>
      <point x="290" y="735"/>
      <point x="253" y="735" type="curve" smooth="yes"/>
      <point x="147" y="735"/>
      <point x="100" y="689"/>
      <point x="100" y="575" type="curve" smooth="yes"/>
      <point x="100" y="500" type="line"/>
      <point x="10" y="500" type="line"/>
      <point x="10" y="415" type="line"/>
      <point x="100" y="415" type="line"/>
    </contour>
    <contour>
      <point x="421" y="592" type="line"/>
      <point x="576" y="592" type="line"/>
      <point x="576" y="722" type="line"/>
      <point x="421" y="722" type="line"/>
    </contour>
  </outline>
</glyph>
<glyph name="uniFB02" format="2">
  <advance width="609"/>
  <unicode hex="FB02"/>
  <anchor x="482" y="797" name="top"/>
  <anchor x="482" y="-57" name="bottom"/>
  <outline>
    <contour>
      <point x="100" y="575" type="curve" smooth="yes"/>
      <point x="100" y="0" type="line"/>
      <point x="235" y="0" type="line"/>
      <point x="235" y="572" type="line" smooth="yes"/>
      <point x="235" y="623"/>
      <point x="248.005" y="646"/>
      <point x="296.713" y="646" type="curve" smooth="yes"/>
      <point x="317.026" y="646"/>
      <point x="336" y="642"/>
      <point x="355" y="632" type="curve"/>
      <point x="355" y="717" type="line"/>
      <point x="318" y="729"/>
      <point x="285" y="735"/>
      <point x="248.119" y="735" type="curve" smooth="yes"/>
      <point x="146" y="735"/>
      <point x="100" y="689"/>
    </contour>
    <contour>
      <point x="115" y="500" type="line"/>
      <point x="10" y="500" type="line"/>
      <point x="10" y="415" type="line"/>
      <point x="115" y="415" type="line"/>
    </contour>
    <contour>
      <point x="325" y="500" type="line"/>
      <point x="220" y="500" type="line"/>
      <point x="220" y="415" type="line"/>
      <point x="325" y="415" type="line"/>
    </contour>
    <contour>
      <point x="414" y="0" type="line"/>
      <point x="550" y="0" type="line"/>
      <point x="550" y="722" type="line"/>
      <point x="414" y="722" type="line"/>
    </contour>
  </outline>
</glyph>
<glyph name="uniFB05" format="2">
  <advance width="777"/>
  <unicode hex="FB05"/>
  <outline>
    <component base="t" xOffset="354"/>
    <contour>
      <point x="100" y="0" type="line"/>
      <point x="235" y="0" type="line"/>
      <point x="235" y="572" type="line" smooth="yes"/>
      <point x="235" y="623"/>
      <point x="248.005" y="646"/>
      <point x="296.713" y="646" type="curve" smooth="yes"/>
      <point x="317.026" y="646"/>
      <point x="336" y="642"/>
      <point x="355" y="632" type="curve"/>
      <point x="355" y="717" type="line"/>
      <point x="318" y="729"/>
      <point x="285" y="735"/>
      <point x="248.119" y="735" type="curve" smooth="yes"/>
      <point x="146" y="735"/>
      <point x="100" y="689"/>
      <point x="100" y="575" type="curve" smooth="yes"/>
    </contour>
    <contour>
      <point x="10" y="415" type="line"/>
      <point x="115" y="415" type="line"/>
      <point x="115" y="500" type="line"/>
      <point x="10" y="500" type="line"/>
    </contour>
  </outline>
</glyph>
<glyph name="uniFB06" format="2">
  <advance width="939"/>
  <unicode hex="FB06"/>
  <outline>
    <component base="s"/>
    <contour>
      <point x="646" y="119" type="line" smooth="yes"/>
      <point x="646" y="36"/>
      <point x="721" y="-14"/>
      <point x="807" y="-14" type="curve" smooth="yes"/>
      <point x="844" y="-14"/>
      <point x="878" y="-8"/>
      <point x="909" y="3" type="curve"/>
      <point x="909" y="88" type="line"/>
      <point x="894" y="82"/>
      <point x="877" y="79"/>
      <point x="859" y="79" type="curve" smooth="yes"/>
      <point x="811" y="79"/>
      <point x="781" y="107"/>
      <point x="781" y="157" type="curve" smooth="yes"/>
      <point x="781" y="527" type="line"/>
      <point x="646" y="527" type="line"/>
    </contour>
    <contour>
      <point x="766" y="415" type="line"/>
      <point x="900" y="415" type="line"/>
      <point x="900" y="500" type="line"/>
      <point x="766" y="500" type="line"/>
    </contour>
    <contour>
      <point x="546" y="415" type="line"/>
      <point x="661" y="415" type="line"/>
      <point x="661" y="500" type="line"/>
      <point x="546" y="500" type="line"/>
    </contour>
    <contour>
      <point x="438" y="354" type="curve"/>
      <point x="463" y="354" type="line"/>
      <point x="463" y="492.11"/>
      <point x="352" y="501.823"/>
      <point x="352" y="586.554" type="curve" smooth="yes"/>
      <point x="352" y="635.838"/>
      <point x="411.2" y="668.694"/>
      <point x="500" y="668.694" type="curve" smooth="yes"/>
      <point x="587.6" y="668.694"/>
      <point x="646" y="612.052"/>
      <point x="646" y="527.089" type="curve" smooth="yes"/>
      <point x="646" y="517" type="line"/>
      <point x="781" y="517" type="line"/>
      <point x="781" y="540" type="line" smooth="yes"/>
      <point x="781" y="655.2"/>
      <point x="677.977" y="732"/>
      <point x="523.442" y="732" type="curve" smooth="yes"/>
      <point x="391.777" y="732"/>
      <point x="304" y="673.914"/>
      <point x="304" y="586.785" type="curve" smooth="yes"/>
      <point x="304" y="495"/>
      <point x="438" y="468"/>
    </contour>
  </outline>
  <guideline angle="0" x="0" y="354"/>
  <guideline angle="90" x="328" y="0"/>
  <guideline angle="90" x="463" y="0"/>
  <guideline angle="90" x="646" y="0"/>
  <guideline angle="90" x="781" y="0"/>
</glyph>
<glyph name=".notdef" format="2">
  <advance width="1000"/>
  <outline>
    <contour>
      <point x="100" y="-50" type="line"/>
      <point x="900" y="-50" type="line"/>
      <point x="900" y="752" type="line"/>
      <point x="100" y="752" type="line"/>
    </contour>
    <contour>
      <point x="526" y="684" type="line"/>
      <point x="804" y="684" type="line"/>
      <point x="804" y="274" type="line"/>
      <point x="526" y="274" type="line"/>
    </contour>
    <contour>
      <point x="469" y="684" type="line"/>
      <point x="469" y="274" type="line"/>
      <point x="377" y="274" type="line"/>
      <point x="271" y="515" type="line"/>
      <point x="271" y="274" type="line"/>
      <point x="191" y="274" type="line"/>
      <point x="191" y="684" type="line"/>
      <point x="283" y="684" type="line"/>
      <point x="389" y="443" type="line"/>
      <point x="389" y="684" type="line"/>
    </contour>
    <contour>
      <point x="191" y="205" type="line"/>
      <point x="315" y="205" type="line"/>
      <point x="315" y="169" type="line"/>
      <point x="227" y="169" type="line"/>
      <point x="227" y="57" type="line"/>
      <point x="279" y="57" type="line"/>
      <point x="279" y="96" type="line"/>
      <point x="254" y="96" type="line"/>
      <point x="254" y="132" type="line"/>
      <point x="315" y="132" type="line"/>
      <point x="315" y="21" type="line"/>
      <point x="191" y="21" type="line"/>
    </contour>
    <contour>
      <point x="343" y="205" type="line"/>
      <point x="382" y="205" type="line"/>
      <point x="382" y="57" type="line"/>
      <point x="454" y="57" type="line"/>
      <point x="454" y="21" type="line"/>
      <point x="343" y="21" type="line"/>
    </contour>
    <contour>
      <point x="410" y="205" type="line"/>
      <point x="446" y="205" type="line"/>
      <point x="446" y="132" type="line"/>
      <point x="486" y="132" type="line"/>
      <point x="486" y="205" type="line"/>
      <point x="522" y="205" type="line"/>
      <point x="522" y="21" type="line"/>
      <point x="486" y="21" type="line"/>
      <point x="486" y="96" type="line"/>
      <point x="410" y="96" type="line"/>
    </contour>
    <contour>
      <point x="550" y="205" type="line"/>
      <point x="664" y="205" type="line"/>
      <point x="664" y="96" type="line"/>
      <point x="587" y="96" type="line"/>
      <point x="587" y="21" type="line"/>
      <point x="550" y="21" type="line"/>
    </contour>
    <contour>
      <point x="692" y="205" type="line"/>
      <point x="728" y="205" type="line"/>
      <point x="728" y="132" type="line"/>
      <point x="768" y="132" type="line"/>
      <point x="768" y="205" type="line"/>
      <point x="804" y="205" type="line"/>
      <point x="804" y="21" type="line"/>
      <point x="768" y="21" type="line"/>
      <point x="768" y="96" type="line"/>
      <point x="728" y="96" type="line"/>
      <point x="728" y="21" type="line"/>
      <point x="692" y="21" type="line"/>
    </contour>
    <contour>
      <point x="606" y="604" type="line"/>
      <point x="606" y="354" type="line"/>
      <point x="724" y="354" type="line"/>
      <point x="724" y="604" type="line"/>
    </contour>
    <contour>
      <point x="587" y="169" type="line"/>
      <point x="587" y="132" type="line"/>
      <point x="627" y="132" type="line"/>
      <point x="627" y="169" type="line"/>
    </contour>
  </outline>
</glyph>
<glyph name="aed.dlig" format="2">
  <advance width="911"/>
  <outline>
    <contour>
      <point x="870.276" y="376.78" type="line"/>
      <point x="863.966" y="382.606" type="line" smooth="yes"/>
      <point x="853.767" y="392.318"/>
      <point x="841.63" y="397.173"/>
      <point x="828.518" y="397.173" type="curve" smooth="yes"/>
      <point x="760.543" y="397.173" type="line"/>
      <point x="761.512" y="385.52"/>
      <point x="762.003" y="373.867"/>
      <point x="762.003" y="361.243" type="curve" smooth="yes"/>
      <point x="762.003" y="348.619"/>
      <point x="761.512" y="336.966"/>
      <point x="760.543" y="324.827" type="curve"/>
      <point x="806.667" y="324.827" type="line" smooth="yes"/>
      <point x="841.63" y="324.827"/>
      <point x="870.276" y="291.81"/>
      <point x="870.276" y="250.539" type="curve" smooth="yes"/>
      <point x="870.276" y="232.089" type="line"/>
      <point x="863.966" y="238.401" type="line" smooth="yes"/>
      <point x="854.242" y="248.126"/>
      <point x="841.63" y="252.482"/>
      <point x="828.518" y="252.482" type="curve" smooth="yes"/>
      <point x="750.344" y="252.482" type="line"/>
      <point x="712.959" y="88.8512"/>
      <point x="582.35" y="0"/>
      <point x="376.48" y="0" type="curve" smooth="yes"/>
      <point x="112.346" y="0" type="line"/>
      <point x="134.427" y="13.424"/>
      <point x="148.276" y="59.8349"/>
      <point x="148.276" y="120.414" type="curve" smooth="yes"/>
      <point x="148.276" y="252.482" type="line"/>
      <point x="104.092" y="252.482" type="line" smooth="yes"/>
      <point x="68.6469" y="252.482"/>
      <point x="40" y="285.984"/>
      <point x="40" y="326.77" type="curve" smooth="yes"/>
      <point x="40" y="345.22" type="line"/>
      <point x="46.7976" y="339.393" type="line" smooth="yes"/>
      <point x="56.9669" y="330.676"/>
      <point x="68.6469" y="324.827"/>
      <point x="81.7565" y="324.827" type="curve" smooth="yes"/>
      <point x="148.276" y="324.827" type="line"/>
      <point x="148.276" y="397.173" type="line"/>
      <point x="104.092" y="397.173" type="line" smooth="yes"/>
      <point x="68.6469" y="397.173"/>
      <point x="40" y="430.675"/>
      <point x="40" y="471.461" type="curve" smooth="yes"/>
      <point x="40" y="489.911" type="line"/>
      <point x="46.7976" y="483.599" type="line" smooth="yes"/>
      <point x="56.5084" y="474.374"/>
      <point x="68.6469" y="469.518"/>
      <point x="81.7565" y="469.518" type="curve" smooth="yes"/>
      <point x="148.276" y="469.518" type="line"/>
      <point x="148.276" y="596.245" type="line" smooth="yes"/>
      <point x="148.276" y="648.853"/>
      <point x="132.107" y="705.443"/>
      <point x="112.346" y="722" type="curve"/>
      <point x="376.48" y="722" type="line" smooth="yes"/>
      <point x="576.523" y="722"/>
      <point x="710.53" y="634.117"/>
      <point x="749.86" y="469.518" type="curve"/>
      <point x="806.667" y="469.518" type="line" smooth="yes"/>
      <point x="841.63" y="469.518"/>
      <point x="870.276" y="436.502"/>
      <point x="870.276" y="395.231" type="curve" smooth="yes"/>
    </contour>
    <contour>
      <point x="366.77" y="686.07" type="curve" smooth="yes"/>
      <point x="256.552" y="686.07" type="line"/>
      <point x="256.552" y="469.518" type="line"/>
      <point x="627.02" y="469.518" type="line"/>
      <point x="601.772" y="620.036"/>
      <point x="515.83" y="686.07"/>
    </contour>
    <contour>
      <point x="635.759" y="361.243" type="curve" smooth="yes"/>
      <point x="635.759" y="373.867"/>
      <point x="635.274" y="385.52"/>
      <point x="634.788" y="397.173" type="curve"/>
      <point x="256.552" y="397.173" type="line"/>
      <point x="256.552" y="324.827" type="line"/>
      <point x="634.788" y="324.827" type="line"/>
      <point x="635.274" y="336.966"/>
      <point x="635.759" y="348.619"/>
    </contour>
    <contour>
      <point x="256.552" y="36.4163" type="line"/>
      <point x="367.74" y="36.4163" type="line" smooth="yes"/>
      <point x="525.589" y="36.4163"/>
      <point x="603.228" y="116.045"/>
      <point x="627.02" y="252.482" type="curve"/>
      <point x="256.552" y="252.482" type="line"/>
    </contour>
  </outline>
</glyph>
<glyph name="brevecyr.case" format="2">
  <advance width="491"/>
  <anchor x="245" y="750" name="top"/>
  <outline>
    <contour>
      <point x="245.006" y="848" type="curve" smooth="yes"/>
      <point x="216.006" y="848"/>
      <point x="186.006" y="870"/>
      <point x="186.006" y="899" type="curve"/>
      <point x="60.0065" y="899" type="line"/>
      <point x="60.0065" y="817"/>
      <point x="125.006" y="750"/>
      <point x="245.006" y="750" type="curve" smooth="yes"/>
      <point x="365.006" y="750"/>
      <point x="430.006" y="818"/>
      <point x="430.006" y="899" type="curve"/>
      <point x="304.006" y="899" type="line"/>
      <point x="304.006" y="869"/>
      <point x="273.006" y="848"/>
    </contour>
  </outline>
</glyph>
<glyph name="brevecyr" format="2">
  <advance width="381"/>
  <anchor x="190" y="580" name="top"/>
  <outline>
    <contour>
      <point x="130.429" y="731" type="curve"/>
      <point x="30.4286" y="731" type="line"/>
      <point x="30.4286" y="631"/>
      <point x="91.6537" y="580"/>
      <point x="190.429" y="580" type="curve" smooth="yes"/>
      <point x="283.706" y="580"/>
      <point x="350.429" y="631"/>
      <point x="350.429" y="731" type="curve"/>
      <point x="250.429" y="731" type="line"/>
      <point x="250.429" y="686.833"/>
      <point x="228.286" y="661"/>
      <point x="190.429" y="661" type="curve" smooth="yes"/>
      <point x="152.571" y="661"/>
      <point x="130.429" y="686.833"/>
    </contour>
  </outline>
</glyph>
<glyph name="commaaccent.alt" format="2">
  <advance width="268"/>
  <anchor x="134" y="580" name="_top"/>
  <outline>
    <contour>
      <point x="52.7093" y="580" type="line"/>
      <point x="180.709" y="580" type="line"/>
      <point x="215.709" y="725" type="line"/>
      <point x="112.709" y="725" type="line"/>
      <point x="52.7093" y="593.734" type="line"/>
    </contour>
  </outline>
  <guideline angle="0" x="0" y="580"/>
  <guideline angle="90" x="134" y="0"/>
</glyph>
<glyph name="uni0414.loclBGR" format="2">
  <advance width="711"/>
  <outline>
    <contour>
      <point x="630.532" y="99.8454" type="line"/>
      <point x="412.673" y="722" type="line"/>
      <point x="282.317" y="722" type="line"/>
      <point x="63.5162" y="100.328" type="line"/>
      <point x="209.812" y="100.198" type="line"/>
      <point x="352.764" y="531.39" type="line"/>
      <point x="345.248" y="531.402" type="line"/>
      <point x="486.834" y="99.7664" type="line"/>
    </contour>
    <contour>
      <point x="684" y="-160" type="line"/>
      <point x="684" y="115" type="line"/>
      <point x="9" y="115" type="line"/>
      <point x="9" y="-160" type="line"/>
      <point x="144" y="-160" type="line"/>
      <point x="144" y="0" type="line"/>
      <point x="549" y="0" type="line"/>
      <point x="549" y="-160" type="line"/>
    </contour>
  </outline>
  <guideline angle="90" x="357" y="0"/>
  <guideline angle="0" x="0" y="722"/>
</glyph>
<glyph name="uni0432.loclBGR" format="2">
  <advance width="603"/>
  <outline>
    <contour>
      <point x="60" y="267" type="line" smooth="yes"/>
      <point x="60" y="78"/>
      <point x="142" y="-14"/>
      <point x="311" y="-14" type="curve" smooth="yes"/>
      <point x="461" y="-14"/>
      <point x="559" y="79"/>
      <point x="559" y="222" type="curve" smooth="yes"/>
      <point x="559" y="327.252"/>
      <point x="482.6" y="407.652"/>
      <point x="368" y="423" type="curve"/>
      <point x="368" y="391" type="line"/>
      <point x="449.873" y="429.584"/>
      <point x="489" y="487.789"/>
      <point x="489" y="571" type="curve" smooth="yes"/>
      <point x="489" y="670.59"/>
      <point x="410.807" y="734"/>
      <point x="288" y="734" type="curve" smooth="yes"/>
      <point x="143" y="734"/>
      <point x="60" y="647"/>
      <point x="60" y="495" type="curve" smooth="yes"/>
    </contour>
    <contour>
      <point x="196" y="522" type="line" smooth="yes"/>
      <point x="196" y="598"/>
      <point x="231" y="648"/>
      <point x="286" y="648" type="curve" smooth="yes"/>
      <point x="332" y="648"/>
      <point x="363" y="609.326"/>
      <point x="363" y="550.792" type="curve" smooth="yes"/>
      <point x="363" y="465.081"/>
      <point x="298" y="417"/>
      <point x="170" y="410" type="curve"/>
      <point x="170" y="301" type="line"/>
      <point x="206" y="318"/>
      <point x="250" y="329"/>
      <point x="284" y="329" type="curve" smooth="yes"/>
      <point x="371" y="329"/>
      <point x="423" y="286"/>
      <point x="423" y="212" type="curve" smooth="yes"/>
      <point x="423" y="126.971"/>
      <point x="376.275" y="72"/>
      <point x="304" y="72" type="curve" smooth="yes"/>
      <point x="239.2" y="72"/>
      <point x="196" y="121.6"/>
      <point x="196" y="196" type="curve" smooth="yes"/>
    </contour>
  </outline>
</glyph>
<glyph name="uni0432.ss01" format="2">
  <advance width="604"/>
  <outline>
    <contour>
      <point x="185.619" y="416" type="curve"/>
      <point x="185.619" y="473" type="line" smooth="yes"/>
      <point x="185.619" y="575"/>
      <point x="226.619" y="634"/>
      <point x="295.619" y="634" type="curve" smooth="yes"/>
      <point x="353.619" y="634"/>
      <point x="394.619" y="591"/>
      <point x="394.619" y="534" type="curve" smooth="yes"/>
      <point x="394.619" y="506"/>
      <point x="384.619" y="481"/>
      <point x="366.619" y="465" type="curve"/>
      <point x="349.619" y="467"/>
      <point x="338.619" y="468"/>
      <point x="305.619" y="468" type="curve" smooth="yes"/>
      <point x="264.619" y="468"/>
      <point x="218.619" y="448"/>
    </contour>
    <contour>
      <point x="430.619" y="231" type="curve" smooth="yes"/>
      <point x="430.619" y="147"/>
      <point x="373.619" y="83"/>
      <point x="303.619" y="83" type="curve" smooth="yes"/>
      <point x="233.619" y="83"/>
      <point x="185.619" y="146"/>
      <point x="185.619" y="232" type="curve" smooth="yes"/>
      <point x="185.619" y="318"/>
      <point x="232.619" y="371"/>
      <point x="304.619" y="371" type="curve" smooth="yes"/>
      <point x="378.619" y="371"/>
      <point x="430.619" y="313"/>
    </contour>
    <contour>
      <point x="60.619" y="284" type="line" smooth="yes"/>
      <point x="60.619" y="85"/>
      <point x="140.619" y="-14"/>
      <point x="301.619" y="-14" type="curve" smooth="yes"/>
      <point x="446.619" y="-14"/>
      <point x="559.619" y="98"/>
      <point x="559.619" y="235" type="curve" smooth="yes"/>
      <point x="559.619" y="319"/>
      <point x="517.619" y="398"/>
      <point x="455.619" y="438" type="curve"/>
      <point x="506.619" y="474"/>
      <point x="529.619" y="513"/>
      <point x="529.619" y="564" type="curve" smooth="yes"/>
      <point x="529.619" y="663"/>
      <point x="440.619" y="731"/>
      <point x="313.619" y="731" type="curve" smooth="yes"/>
      <point x="160.619" y="731"/>
      <point x="60.619" y="631"/>
      <point x="60.619" y="478" type="curve" smooth="yes"/>
    </contour>
  </outline>
</glyph>
<glyph name="uni0436.loclBGR" format="2">
  <advance width="853"/>
  <outline>
    <contour>
      <point x="10" y="0" type="line"/>
      <point x="212.816" y="293.876" type="line"/>
      <point x="213.682" y="274.781" type="line"/>
      <point x="26" y="500" type="line"/>
      <point x="188" y="500" type="line"/>
      <point x="359.317" y="282.853" type="line"/>
      <point x="174" y="0" type="line"/>
    </contour>
    <contour>
      <point x="494" y="0" type="line"/>
      <point x="358" y="0" type="line"/>
      <point x="358" y="722" type="line"/>
      <point x="494" y="722" type="line"/>
    </contour>
    <contour>
      <point x="842.392" y="0" type="line"/>
      <point x="678.392" y="0" type="line"/>
      <point x="493.075" y="282.853" type="line"/>
      <point x="664.392" y="500" type="line"/>
      <point x="826.392" y="500" type="line"/>
      <point x="638.71" y="274.781" type="line"/>
      <point x="639.576" y="293.876" type="line"/>
    </contour>
  </outline>
  <guideline angle="308.239" x="202" y="500"/>
  <guideline angle="129.806" x="220" y="284"/>
  <guideline angle="55.3889" x="24" y="0"/>
  <guideline angle="236.827" x="373" y="283"/>
  <guideline angle="90" x="359" y="0"/>
  <guideline angle="90" x="494" y="0"/>
  <guideline angle="90" x="426" y="0"/>
  <guideline angle="231.761" x="600.392" y="500"/>
  <guideline angle="50.1944" x="582.392" y="284"/>
  <guideline angle="124.611" x="778.392" y="0"/>
  <guideline angle="303.173" x="429.392" y="283"/>
  <guideline angle="90" x="443.392" y="0"/>
  <guideline angle="90" x="308.392" y="0"/>
  <guideline angle="90" x="376.392" y="0"/>
</glyph>
<glyph name="uni0439.loclBGR" format="2">
  <advance width="586"/>
  <outline>
    <component base="u"/>
    <contour>
      <point x="232.502" y="750" type="curve"/>
      <point x="132.502" y="750" type="line"/>
      <point x="132.502" y="650"/>
      <point x="193.728" y="599"/>
      <point x="292.502" y="599" type="curve" smooth="yes"/>
      <point x="385.779" y="599"/>
      <point x="452.502" y="650"/>
      <point x="452.502" y="750" type="curve"/>
      <point x="352.502" y="750" type="line"/>
      <point x="352.502" y="705.833"/>
      <point x="330.36" y="680"/>
      <point x="292.502" y="680" type="curve" smooth="yes"/>
      <point x="254.645" y="680"/>
      <point x="232.502" y="705.833"/>
    </contour>
  </outline>
  <guideline angle="90" x="292" y="0"/>
</glyph>
<glyph name="uni0448.loclBGR" format="2">
  <advance width="876"/>
  <outline>
    <contour>
      <point x="506" y="180" type="curve" smooth="yes"/>
      <point x="506" y="500" type="line"/>
      <point x="370" y="500" type="line"/>
      <point x="370" y="221" type="line" smooth="yes"/>
      <point x="370" y="113.924"/>
      <point x="322" y="82"/>
      <point x="266" y="82" type="curve" smooth="yes"/>
      <point x="222" y="82"/>
      <point x="196" y="111"/>
      <point x="196" y="180" type="curve" smooth="yes"/>
      <point x="196" y="500" type="line"/>
      <point x="60" y="500" type="line"/>
      <point x="60" y="170" type="line" smooth="yes"/>
      <point x="60" y="52"/>
      <point x="124" y="-14"/>
      <point x="239.071" y="-14" type="curve" smooth="yes"/>
      <point x="301.892" y="-14"/>
      <point x="354.36" y="17.4767"/>
      <point x="387.424" y="75" type="curve"/>
      <point x="408.175" y="26.878"/>
      <point x="463.361" y="-14"/>
      <point x="537.361" y="-14" type="curve" smooth="yes"/>
      <point x="607.216" y="-14"/>
      <point x="666.565" y="29.163"/>
      <point x="690" y="97" type="curve"/>
      <point x="690" y="220.964" type="line"/>
      <point x="680" y="221" type="line"/>
      <point x="680" y="147.436"/>
      <point x="646.452" y="82"/>
      <point x="578.751" y="82" type="curve" smooth="yes"/>
      <point x="532" y="82"/>
      <point x="506" y="119"/>
    </contour>
    <contour>
      <point x="680" y="140" type="line"/>
      <point x="680" y="0" type="line"/>
      <point x="816" y="0" type="line"/>
      <point x="816" y="140" type="line"/>
    </contour>
    <contour>
      <point x="816" y="140" type="line"/>
      <point x="816" y="500" type="line"/>
      <point x="680" y="500" type="line"/>
      <point x="680" y="139.709" type="line"/>
    </contour>
  </outline>
  <guideline angle="0" x="0" y="75"/>
  <guideline angle="0" x="0" y="130"/>
</glyph>
<glyph name="uni044A.loclBGR" format="2">
  <advance width="607"/>
  <outline>
    <component base="uni044C.loclBGR" xOffset="40"/>
    <contour>
      <point x="235" y="398" type="line"/>
      <point x="235" y="500" type="line"/>
      <point x="8" y="500" type="line"/>
      <point x="8" y="398" type="line"/>
    </contour>
  </outline>
</glyph>
<glyph name="uni044C.loclBGR" format="2">
  <advance width="567"/>
  <outline>
    <contour>
      <point x="60" y="186" type="line" smooth="yes"/>
      <point x="60" y="58"/>
      <point x="141" y="-12"/>
      <point x="287" y="-12" type="curve" smooth="yes"/>
      <point x="429" y="-12"/>
      <point x="523" y="55"/>
      <point x="523" y="197" type="curve" smooth="yes"/>
      <point x="523" y="315.511"/>
      <point x="444.918" y="389"/>
      <point x="323" y="389" type="curve" smooth="yes"/>
      <point x="265.631" y="389"/>
      <point x="222.253" y="371.708"/>
      <point x="195" y="350" type="curve"/>
      <point x="195" y="500" type="line"/>
      <point x="60" y="500" type="line"/>
    </contour>
    <contour>
      <point x="195" y="191.106" type="curve" smooth="yes"/>
      <point x="195" y="263.324"/>
      <point x="231.487" y="303"/>
      <point x="291.744" y="303" type="curve" smooth="yes"/>
      <point x="352" y="303"/>
      <point x="387" y="263.324"/>
      <point x="387" y="189.744" type="curve" smooth="yes"/>
      <point x="387" y="123.932"/>
      <point x="358" y="74"/>
      <point x="292.284" y="74" type="curve" smooth="yes"/>
      <point x="226.568" y="74"/>
      <point x="195" y="123.932"/>
    </contour>
  </outline>
</glyph>
